<svg xmlns="http://www.w3.org/2000/svg" viewBox="0 0 27.09 17.74"><title>Asset 21parents black</title><g id="Layer_2" data-name="Layer 2"><g id="Layer_1-2" data-name="Layer 1"><path d="M10.32,5.94c.24.1.48.18.7.29,0,0,.05.13.08.19s-.16,0-.21,0a1,1,0,0,0-1.13,0s-.14,0-.21,0,0-.18.09-.2C9.86,6.11,10.08,6,10.32,5.94Z"/><path d="M6.73,6.21c-.2.08-.38.16-.56.22a.62.62,0,0,1-.23,0c0-.06,0-.15.1-.19a1.2,1.2,0,0,1,1.39,0,.54.54,0,0,1,.07.19.52.52,0,0,1-.21,0Z"/><path d="M7.71,9.53c.13,0,.25-.06.32,0a1.07,1.07,0,0,0,1,0c.08,0,.19,0,.28,0s-.09.17-.16.21A1.22,1.22,0,0,1,7.71,9.53Z"/><path d="M6.82,7.38c-.19,0-.35-.08-.51-.14s-.08-.12-.11-.18.14-.07.19,0a1.12,1.12,0,0,0,.88,0c.05,0,.13,0,.2,0s-.06.16-.11.17S7,7.33,6.82,7.38Z"/><path d="M10.18,7.37c-.19,0-.36-.09-.52-.15s-.06-.11-.09-.17S9.7,7,9.75,7a1.08,1.08,0,0,0,.88,0s.13,0,.19,0-.05.15-.09.17Z"/><path d="M18.51,7.89s0,.07-.05.07a.24.24,0,0,1-.16,0c-.11-.1-.2-.18-.24,0A.11.11,0,0,1,18,8s-.08,0-.09-.1-.12-.16-.24-.05a.44.44,0,0,1-.17.07c0-.06,0-.12,0-.18,0-.25.1-.27.32-.19a.81.81,0,0,0,.38,0C18.44,7.52,18.52,7.58,18.51,7.89Z"/><path d="M20.7,7.76c0,.11,0,.16-.05.19a.21.21,0,0,1-.11.1s-.09-.06-.1-.1c0-.19-.1-.17-.23-.07s-.12,0-.18.08,0-.14,0-.2c0-.27.12-.22.31-.18a2.08,2.08,0,0,0,.49,0c.06,0,.17,0,.18,0a2.45,2.45,0,0,1,0,.38.45.45,0,0,1-.16,0A1.05,1.05,0,0,1,20.7,7.76Z"/><path d="M17.87,6.73l.55.23s0,.1.07.15-.14,0-.17,0a.78.78,0,0,0-.89,0s-.1,0-.16,0,0-.14.06-.16S17.68,6.81,17.87,6.73Z"/><path d="M20.64,6.73a5.48,5.48,0,0,1,.54.23s.05.1.07.16-.13,0-.16,0a.78.78,0,0,0-.9,0s-.1,0-.16,0,0-.13.06-.15Z"/><path d="M19.25,9.84l-.43-.27s0-.1,0-.16.1,0,.14,0a.38.38,0,0,0,.56,0s.1,0,.15,0,0,.14,0,.16Z"/><path d="M0,16.38a7.1,7.1,0,0,1,.32-1,4,4,0,0,1,3.09-2.21c.53-.1,1.08-.17,1.6-.32A2.21,2.21,0,0,0,6.56,11.4a.25.25,0,0,0-.08-.33,9,9,0,0,1-.71-.67,2,2,0,0,1-.54-1.16A.23.23,0,0,0,5,9a1.06,1.06,0,0,1-.73-1.07c0-.21,0-.42,0-.64a.65.65,0,0,1,.44-.67c0-.21,0-.4,0-.6,0-.59-.06-1.18-.14-1.76a1.32,1.32,0,0,0-.87-1.15l.4-.47A9,9,0,0,1,6.77.39a2.77,2.77,0,0,1,3.62.68.76.76,0,0,0,.39.22,2.31,2.31,0,0,1,1.69,1.24,3.44,3.44,0,0,1-.06,3.77,4,4,0,0,1-.44.5l.08,0c.64-.08,1,.31.79.93-.09.31-.21.61-.32.92a.55.55,0,0,1-.66.35,2.34,2.34,0,0,1-.95,1.8c-.12.11-.09.2-.05.32a2.68,2.68,0,0,0,2.07,1.69,11.5,11.5,0,0,1,1.56.4,4,4,0,0,1,2.56,2.82,6.89,6.89,0,0,1,.09,1.44c0,.08-.12.17-.21.22a.55.55,0,0,1-.26,0H.46A1.59,1.59,0,0,1,0,17.6ZM11.6,6h0c0-.1,0-.21,0-.32a2.31,2.31,0,0,0-1.05-2,.28.28,0,0,0-.39,0,4,4,0,0,1-1.85.7,5.32,5.32,0,0,0-1.42.38A1.68,1.68,0,0,0,5.72,6.67a2.7,2.7,0,0,0,0,.28c0,.24-.1.35-.33.28A2.39,2.39,0,0,0,5,7.11c-.08,0-.23.11-.23.16a7.31,7.31,0,0,0,.13,1.06.32.32,0,0,0,.37.23c.36,0,.39,0,.41.36a2,2,0,0,0,.68,1.41l.76.66a2.28,2.28,0,0,0,3.11-.11l.61-.58a1.87,1.87,0,0,0,.6-1.5c0-.34.09-.4.41-.27.12,0,.24.1.3-.09s.2-.56.29-.85-.05-.38-.33-.3c-.05,0-.1.07-.16.08s-.28.1-.35,0-.09-.23-.08-.35C11.51,6.72,11.56,6.37,11.6,6Zm-1.14,5.35A2.86,2.86,0,0,1,7,11.61a5.85,5.85,0,0,1-.55.9,5.57,5.57,0,0,1-.82.71A5.13,5.13,0,0,0,9.27,14a5.55,5.55,0,0,0,2.43-1.11A2,2,0,0,1,10.46,11.37Z"/><path d="M27.09,17.6a.78.78,0,0,1-.3.13H18.17l-.13,0a5.21,5.21,0,0,0-.45-2.78c2.45.91,4.26-.13,5.94-1.78L22.86,13c-.41-.09-.82-.16-1.21-.28a2.7,2.7,0,0,1-.71-.33,1,1,0,0,1-.35-1,2.46,2.46,0,0,1-2.75-.06,4.76,4.76,0,0,1-.24.83,1,1,0,0,1-.44.45A7.09,7.09,0,0,1,16,13a.34.34,0,0,1-.22,0,5.78,5.78,0,0,0-2.28-.85c-.08,0-.16-.07-.3-.12l.17-.08a1.83,1.83,0,0,0,1.48-1.28,6.76,6.76,0,0,0,.42-2.09,18.16,18.16,0,0,1,.36-3A3.57,3.57,0,0,1,19.3,2.68a3.63,3.63,0,0,1,3.5,3A17.5,17.5,0,0,1,23,7.44a9.6,9.6,0,0,0,.64,2.84,2.72,2.72,0,0,0,.78,1.18,7.42,7.42,0,0,0,.89.5c-.29.53-.88.62-1.44.8l1,.33A3.09,3.09,0,0,1,27,15.87c0,.24.07.48.1.72ZM20.38,4.45A2.19,2.19,0,0,1,19,6.14a13.62,13.62,0,0,1-1.78.56c-.64.17-.63.15-.66.81a4.36,4.36,0,0,0,.72,2.81,2.26,2.26,0,0,0,2.56.94,3.29,3.29,0,0,0,2.1-2.21A4.4,4.4,0,0,0,22,6.8a.35.35,0,0,0-.18-.2,2.26,2.26,0,0,1-.9-.94C20.71,5.27,20.55,4.86,20.38,4.45Z"/></g></g></svg>