<svg xmlns="http://www.w3.org/2000/svg" viewBox="0 0 15.4 14.53"><defs><style>.cls-1{fill:#fff;}</style></defs><title>Asset 29anouncment</title><g id="Layer_2" data-name="Layer 2"><g id="Layer_1-2" data-name="Layer 1"><path class="cls-1" d="M3.25,8.08a1.26,1.26,0,0,1-1.11-.74S2.05,7.27,2,7.27H1.28A1.21,1.21,0,0,1,0,6.07c0-.81,0-1.63,0-2.45A1.21,1.21,0,0,1,1.27,2.43H2a.18.18,0,0,0,.2-.12,1.19,1.19,0,0,1,1.11-.69H5.64A1.36,1.36,0,0,1,6.49,2,.57.57,0,0,0,6.84,2,13.25,13.25,0,0,0,10.6,1.1a.69.69,0,0,0,.46-.41A1.16,1.16,0,0,1,12.36,0a1.18,1.18,0,0,1,1,1.13c0,.83,0,1.67,0,2.51V8.41A1.19,1.19,0,0,1,12,9.64a1.14,1.14,0,0,1-1-.75.37.37,0,0,0-.22-.22,13.48,13.48,0,0,0-3.94-1,.58.58,0,0,0-.45.12,4.07,4.07,0,0,1-.67.31l0,0c0,.06,0,.12,0,.18V9.84a.46.46,0,0,0,.1.25,1.23,1.23,0,0,1,.29.78c0,.7,0,1.39,0,2.09a1.61,1.61,0,0,1-3.21,0c0-.67,0-1.34,0-2a1.24,1.24,0,0,1,.31-.81.45.45,0,0,0,.1-.21V8.16S3.25,8.12,3.25,8.08ZM6.08,4.87v-2c0-.33-.15-.47-.48-.48H3.33c-.33,0-.48.15-.48.49V6.79c0,.33.15.48.49.48H5.57c.37,0,.51-.14.51-.52Zm6.45,0V1.37a1.21,1.21,0,0,0,0-.19.42.42,0,0,0-.4-.36.4.4,0,0,0-.4.38V8.31a1.48,1.48,0,0,0,0,.21.36.36,0,0,0,.3.34c.27.07.49-.13.49-.45ZM5.27,11.92c0-.33,0-.66,0-1a.4.4,0,0,0-.44-.45H4.11a.41.41,0,0,0-.45.45q0,1,0,2a.81.81,0,1,0,1.61,0C5.28,12.56,5.27,12.24,5.27,11.92Z"/><path d="M4.46,14.53h0a1.64,1.64,0,0,1-1.61-1.61c0-.49,0-1,0-1.48V10.9a1.29,1.29,0,0,1,.31-.82.34.34,0,0,0,.1-.2V8.16a.08.08,0,0,0,0,0v0a1.23,1.23,0,0,1-1.1-.74A.2.2,0,0,0,2,7.29H1.28A1.21,1.21,0,0,1,0,6.07C0,5.23,0,4.4,0,3.62a1.22,1.22,0,0,1,1.26-1.2H2a.18.18,0,0,0,.19-.11,1.19,1.19,0,0,1,1.12-.7H5.64a1.33,1.33,0,0,1,.86.32A.54.54,0,0,0,6.83,2a13.35,13.35,0,0,0,3.76-.91.71.71,0,0,0,.46-.4A1.15,1.15,0,0,1,12.36,0a1.18,1.18,0,0,1,1,1.14c0,.6,0,1.22,0,1.82V4.8c0,1.18,0,2.41,0,3.61a1.25,1.25,0,0,1-.4,1,1.21,1.21,0,0,1-1,.29,1.16,1.16,0,0,1-1-.76.32.32,0,0,0-.21-.21,13.4,13.4,0,0,0-3.94-1,.54.54,0,0,0-.43.11,2,2,0,0,1-.47.23l-.2.09h0v0a.49.49,0,0,0,0,.12V9.84a.44.44,0,0,0,.09.24,1.24,1.24,0,0,1,.3.79c0,.19,0,.38,0,.57,0,.5,0,1,0,1.52A1.6,1.6,0,0,1,4.46,14.53ZM1.68,7.25H2a.21.21,0,0,1,.16.08,1.23,1.23,0,0,0,1.09.73h0v0a.43.43,0,0,0,0,.05v.35c0,.45,0,.92,0,1.37a.38.38,0,0,1-.1.22,1.25,1.25,0,0,0-.3.8v2a1.61,1.61,0,0,0,1.58,1.57h0A1.57,1.57,0,0,0,6.05,13c0-.51,0-1,0-1.52v-.57a1.27,1.27,0,0,0-.3-.77.49.49,0,0,1-.1-.26V8.26a.57.57,0,0,1,0-.13V8l.06.07L5.93,8a2.47,2.47,0,0,0,.46-.23.61.61,0,0,1,.46-.12,13.4,13.4,0,0,1,3.94,1,.41.41,0,0,1,.24.24,1.1,1.1,0,0,0,1,.73,1.16,1.16,0,0,0,.93-.28,1.24,1.24,0,0,0,.4-.93V3c0-.6,0-1.21,0-1.82A1.17,1.17,0,0,0,11.08.7a.75.75,0,0,1-.47.42A13.5,13.5,0,0,1,6.84,2,.61.61,0,0,1,6.48,2a1.33,1.33,0,0,0-.84-.31H3.28a1.14,1.14,0,0,0-1.09.68A.2.2,0,0,1,2,2.46h-.7A1.19,1.19,0,0,0,.05,3.62c0,.78,0,1.61,0,2.45A1.18,1.18,0,0,0,1.28,7.25h.4Zm2.78,6.48a.82.82,0,0,1-.82-.82c0-.67,0-1.34,0-2a.42.42,0,0,1,.47-.46h.72a.42.42,0,0,1,.46.47v1.94a.83.83,0,0,1-.82.85Zm0-3.23H4.11a.39.39,0,0,0-.43.43c0,.64,0,1.31,0,2a.78.78,0,0,0,.78.78h0a.78.78,0,0,0,.78-.81c0-.22,0-.45,0-.67v-.59c0-.22,0-.46,0-.68a.39.39,0,0,0-.42-.44Zm7.67-1.61H12a.39.39,0,0,1-.31-.36,1,1,0,0,1,0-.17V1.2a.43.43,0,0,1,.42-.4h0a.44.44,0,0,1,.42.38V8.41a.52.52,0,0,1-.17.41A.39.39,0,0,1,12.15,8.89Zm0-8a.39.39,0,0,0-.38.36V8.52a.35.35,0,0,0,.29.32.36.36,0,0,0,.31-.05.45.45,0,0,0,.16-.38V1.33a.75.75,0,0,0,0-.15.4.4,0,0,0-.38-.34ZM4.41,7.29H3.34c-.35,0-.51-.15-.51-.49V2.92c0-.35.16-.5.5-.5H5.6c.34,0,.49.15.49.48s0,.94,0,1.39V6.75c0,.39-.15.53-.53.53Zm.06-4.84H3.33c-.32,0-.46.14-.46.47V6.79c0,.32.14.46.47.46H5.57c.36,0,.49-.13.49-.5V2.91c0-.32-.14-.46-.46-.46Z"/><path class="cls-1" d="M15.35,6.78c0,.35-.27.57-.53.46s-.61-.29-.91-.46a.38.38,0,0,1-.15-.51.38.38,0,0,1,.49-.2,10.12,10.12,0,0,1,.93.47A.67.67,0,0,1,15.35,6.78Z"/><path d="M15,7.28l-.15,0a9.42,9.42,0,0,1-.91-.45.39.39,0,0,1-.16-.53.4.4,0,0,1,.52-.21,8,8,0,0,1,.93.47.45.45,0,0,1,.15.19l0,0h0a.52.52,0,0,1-.2.44A.42.42,0,0,1,15,7.28Zm-.84-1.22a.39.39,0,0,0-.34.22.37.37,0,0,0,.14.49c.35.19.64.33.91.45a.36.36,0,0,0,.32,0,.46.46,0,0,0,.18-.4l0,0a.46.46,0,0,0-.13-.18,8.89,8.89,0,0,0-.93-.47A.27.27,0,0,0,14.12,6.06Z"/><path class="cls-1" d="M15,2.43a.38.38,0,0,1,.39.28.36.36,0,0,1-.16.44c-.3.17-.61.32-.93.47a.39.39,0,0,1-.47-.18A.35.35,0,0,1,13.87,3c.33-.19.69-.35,1-.53A.16.16,0,0,1,15,2.43Z"/><path d="M14.14,3.66a.38.38,0,0,1-.35-.21.36.36,0,0,1,.07-.5c.24-.15.5-.27.76-.4l.28-.13H15a.42.42,0,0,1,.41.29.39.39,0,0,1-.17.47c-.31.17-.62.32-.93.46A.32.32,0,0,1,14.14,3.66Zm.8-1.21h0l-.28.14c-.25.12-.51.25-.75.39a.33.33,0,0,0-.06.45.36.36,0,0,0,.45.17c.31-.14.62-.3.92-.46a.37.37,0,0,0,.16-.43A.38.38,0,0,0,15,2.45h0Z"/><path class="cls-1" d="M14.54,5.25h-.38a.4.4,0,1,1,0-.8H15a.4.4,0,1,1,0,.8Z"/><path d="M14.3,5.28h-.14a.41.41,0,0,1-.43-.42.4.4,0,0,1,.42-.42H15a.41.41,0,0,1,.42.43.42.42,0,0,1-.41.41,1.4,1.4,0,0,1-.29,0H14.3Zm.25-.82h-.4a.38.38,0,0,0-.39.38.39.39,0,0,0,.4.38H15a.38.38,0,1,0,0-.76Z"/><path class="cls-1" d="M4.46,4.44H4.05a.4.4,0,0,1-.39-.39A.39.39,0,0,1,4,3.65a8.61,8.61,0,0,1,.88,0,.4.4,0,0,1,0,.79Z"/><path d="M4.21,4.46H4.05a.42.42,0,0,1,0-.83h.88a.41.41,0,0,1,.38.43.41.41,0,0,1-.39.4H4.21Zm.26-.8H4a.37.37,0,0,0-.35.38.38.38,0,0,0,.37.37H4.9a.38.38,0,0,0,0-.75Z"/><path class="cls-1" d="M4.48,5.26h.41a.4.4,0,0,1,0,.79H4a.4.4,0,0,1-.37-.4A.39.39,0,0,1,4,5.26Z"/><path d="M4.47,6.08H4a.41.41,0,0,1-.39-.42A.42.42,0,0,1,4,5.24h.85a.42.42,0,0,1,0,.83Zm-.26-.8H4a.37.37,0,0,0-.36.37A.36.36,0,0,0,4,6,6.32,6.32,0,0,0,4.9,6a.36.36,0,0,0,.35-.38.37.37,0,0,0-.36-.37,2.8,2.8,0,0,0-.29,0H4.21Z"/></g></g></svg>