<svg xmlns="http://www.w3.org/2000/svg" viewBox="0 0 14.58 14.61"><defs><style>.cls-1{fill:#fff;}</style></defs><title>Asset 23attendance 1</title><g id="Layer_2" data-name="Layer 2"><g id="Layer_1-2" data-name="Layer 1"><path class="cls-1" d="M5.13,11.47c.09-.34,0-.49-.35-.49H2.48a1.9,1.9,0,0,1,.11-.21l.51-.56a.53.53,0,0,0,.09-.67c-.13-.3-.26-.61-.37-.92a.56.56,0,0,0-.54-.41l-.78,0c-.13,0-.19-.06-.19-.19V6.62a.17.17,0,0,1,.19-.19l.76,0A.56.56,0,0,0,2.82,6c.11-.3.23-.6.37-.89a.54.54,0,0,0-.1-.69L2.6,3.83a.87.87,0,0,1-.12-.2H4.74c.37,0,.46-.11.4-.5.26-.1.53-.21.8-.3a.56.56,0,0,0,.45-.59l0-.73c0-.13,0-.19.18-.19H8a.16.16,0,0,1,.19.18l0,.73a.56.56,0,0,0,.46.6c.27.09.53.2.8.31a.88.88,0,0,0,0,.2c0,.17.14.29.34.29h2.34a1.23,1.23,0,0,1-.1.2l-.51.56a.53.53,0,0,0-.1.67q.21.47.39.93a.52.52,0,0,0,.52.4l.78,0c.14,0,.2.06.19.2V8c0,.13-.06.19-.19.2s-.51,0-.76,0a.55.55,0,0,0-.55.42c-.11.3-.24.61-.37.9a.53.53,0,0,0,.09.68l.51.57a1.11,1.11,0,0,1,.11.2H9.8c-.33,0-.44.14-.35.49l-.8.31a.56.56,0,0,0-.46.59l0,.72c0,.15-.07.2-.21.2H6.62c-.14,0-.2,0-.2-.19s0-.5,0-.75A.54.54,0,0,0,6,11.78ZM3.38,7.3A3.91,3.91,0,1,0,7.29,3.38,3.92,3.92,0,0,0,3.38,7.3Z"/><path d="M8,13.32H6.62c-.15,0-.23-.07-.23-.22s0-.38,0-.57v-.18a.52.52,0,0,0-.42-.54l-.57-.22-.25-.1h0v0a.37.37,0,0,0,0-.35.35.35,0,0,0-.3-.11H2.43l0,0a.35.35,0,0,0,0-.08.35.35,0,0,1,.07-.12l.33-.36.18-.21a.5.5,0,0,0,.09-.64c-.13-.3-.26-.6-.38-.92a.5.5,0,0,0-.51-.39l-.78,0A.19.19,0,0,1,1.29,8V6.62A.2.2,0,0,1,1.5,6.4c.24,0,.48,0,.71,0h0A.52.52,0,0,0,2.79,6c.12-.3.24-.6.37-.89a.52.52,0,0,0-.09-.67l-.16-.17-.33-.38a.5.5,0,0,1-.08-.12.41.41,0,0,0,0-.09l0,0H4.74a.46.46,0,0,0,.34-.09.46.46,0,0,0,0-.37v0h0L5.37,3l.56-.22a.52.52,0,0,0,.43-.56c0-.08,0-.16,0-.25s0-.32,0-.48.07-.22.21-.22H8a.2.2,0,0,1,.22.21c0,.16,0,.32,0,.48s0,.17,0,.25a.54.54,0,0,0,.44.58l.55.2.24.1h0v0a.24.24,0,0,1,0,.08.5.5,0,0,0,0,.12.23.23,0,0,0,.07.17.35.35,0,0,0,.25.09h2.39l0,0a.59.59,0,0,0,0,.08.35.35,0,0,1-.07.12l-.34.38-.17.19a.5.5,0,0,0-.09.64c.13.29.25.6.38.93a.52.52,0,0,0,.5.39l.78,0a.2.2,0,0,1,.22.23V8a.19.19,0,0,1-.22.22l-.74,0h0a.52.52,0,0,0-.53.4c-.11.31-.24.61-.37.9a.53.53,0,0,0,.09.66l.17.19.34.37a.35.35,0,0,1,.07.12l.05.08,0,0H9.8a.42.42,0,0,0-.31.1.46.46,0,0,0,0,.36v0h0l-.25.1-.55.21a.52.52,0,0,0-.44.58c0,.08,0,.16,0,.24s0,.31,0,.47S8.11,13.32,8,13.32Zm-.65-.06H8c.13,0,.18,0,.19-.18s0-.32,0-.47,0-.17,0-.25a.58.58,0,0,1,.47-.62c.19-.06.37-.14.55-.21l.23-.09a.46.46,0,0,1,0-.38A.43.43,0,0,1,9.8,11h2.26l0,0L12,10.8l-.34-.38-.17-.19a.57.57,0,0,1-.1-.71c.14-.29.26-.59.38-.9a.57.57,0,0,1,.57-.44h0l.75,0c.12,0,.17-.05.17-.17V6.63c0-.12-.05-.17-.17-.18l-.78,0A.57.57,0,0,1,11.74,6c-.13-.33-.25-.64-.38-.93a.55.55,0,0,1,.1-.69l.17-.19L12,3.81A.54.54,0,0,0,12,3.7l0,0H9.75a.4.4,0,0,1-.29-.11.33.33,0,0,1-.08-.22.69.69,0,0,1,0-.13V3.15l-.22-.09-.55-.2a.58.58,0,0,1-.47-.63c0-.08,0-.17,0-.25s0-.32,0-.48A.14.14,0,0,0,8,1.34H6.6c-.11,0-.15,0-.16.17s0,.33,0,.49,0,.16,0,.24A.57.57,0,0,1,6,2.85l-.56.21-.22.09a.48.48,0,0,1,0,.39.47.47,0,0,1-.38.12H2.52l0,0a.62.62,0,0,0,.08.12L3,4.19l.16.18a.56.56,0,0,1,.1.72c-.13.29-.26.59-.37.89a.57.57,0,0,1-.58.44h0l-.71,0a.14.14,0,0,0-.16.16V8a.14.14,0,0,0,.16.16l.78,0a.59.59,0,0,1,.56.43c.12.32.24.62.38.92a.56.56,0,0,1-.1.7l-.18.2-.33.36-.06.11,0,0H4.78a.43.43,0,0,1,.35.12.47.47,0,0,1,0,.38l.23.09.57.22a.58.58,0,0,1,.45.59v.18c0,.18,0,.38,0,.57s0,.16.18.16Zm0-2h0a3.95,3.95,0,0,1,0-7.89,3.94,3.94,0,0,1,3.94,4A4,4,0,0,1,7.29,11.25ZM3.38,7.3h0a3.89,3.89,0,0,0,3.88,3.89h0A3.89,3.89,0,1,0,3.4,7.3Z"/><path class="cls-1" d="M4.68,3.26H.37C.09,3.26,0,3.19,0,2.91V.35C0,.1.1,0,.35,0h3c.25,0,.32.07.32.32,0,.57,0,1.14,0,1.71a.46.46,0,0,0,.11.27l.79.79ZM1.83,2.34h.88c.17,0,.25-.06.25-.18S2.87,2,2.71,2H1c-.15,0-.25.08-.24.2s.11.18.24.18Zm-.27-1c.21,0,.41,0,.61,0s.23-.07.23-.19S2.3.94,2.17.94H1C.8.94.71,1,.72,1.13a.18.18,0,0,0,.22.18Z"/><path d="M3.4,3.28h-3C.08,3.28,0,3.21,0,2.91V.35C0,.08.08,0,.35,0h3c.27,0,.35.08.35.35V.83c0,.4,0,.82,0,1.23a.42.42,0,0,0,.1.25l.56.57.23.22.07.08,0,.06,0,0ZM1.84.05H.35c-.24,0-.3.06-.3.3V2.91c0,.27.06.32.32.32H4.61l-.07-.08-.23-.23c-.18-.18-.38-.37-.56-.57a.5.5,0,0,1-.12-.28V.35c0-.24-.06-.3-.3-.3ZM1,2.36c-.16,0-.24-.06-.26-.2A.19.19,0,0,1,.74,2,.28.28,0,0,1,1,1.94H2.71A.28.28,0,0,1,2.93,2,.2.2,0,0,1,3,2.15c0,.1-.05.21-.28.21H1ZM1.84,2H1a.27.27,0,0,0-.19.06.19.19,0,0,0,0,.1c0,.11.08.16.21.16H2.71c.22,0,.23-.12.23-.16a.15.15,0,0,0,0-.1A.25.25,0,0,0,2.71,2Zm.09-.65h-1c-.19,0-.24-.11-.25-.2A.16.16,0,0,1,.74,1,.27.27,0,0,1,1,.92c.32,0,.64,0,1,0h.27c.16,0,.24.07.25.2a.19.19,0,0,1,0,.15.33.33,0,0,1-.21.07Zm-.37-.05h.61a.21.21,0,0,0,.17-.06.17.17,0,0,0,0-.1C2.36,1,2.3,1,2.17,1H1A.21.21,0,0,0,.78,1a.13.13,0,0,0,0,.1c0,.11.08.16.2.16h.62Z"/><path class="cls-1" d="M9.89,3.25c.32-.32.61-.62.91-.9A.38.38,0,0,0,10.92,2V.34c0-.24.08-.31.31-.31h3c.22,0,.3.07.3.29V3c0,.2-.08.29-.28.29H9.89Zm3.74-.91c.13,0,.22,0,.23-.18s-.08-.2-.23-.2H11.85c-.15,0-.24.08-.23.19s.08.18.23.18h.88m.29-1c.2,0,.4,0,.61,0s.24-.07.23-.18a.19.19,0,0,0-.22-.19H12.4c-.13,0-.22.06-.22.19s.1.18.22.18Z"/><path d="M12.22,3.28H9.83l0,0L10.14,3l.64-.63A.41.41,0,0,0,10.9,2c0-.46,0-.93,0-1.39V.34c0-.25.08-.34.33-.34h3c.24,0,.33.09.33.32V3a.27.27,0,0,1-.31.31ZM10,3.23h4.32c.18,0,.25-.07.25-.26,0-.88,0-1.76,0-2.65,0-.2-.06-.27-.27-.27h-3C11,.05,11,.12,11,.34V2a.44.44,0,0,1-.14.34q-.32.3-.63.63C10.1,3.07,10,3.15,10,3.23Zm3.69-.87h0v0c.13,0,.19-.05.2-.16a.1.1,0,0,0,0-.1A.22.22,0,0,0,13.63,2H11.85a.25.25,0,0,0-.16.05.13.13,0,0,0,0,.11c0,.13.12.16.21.16h.88v0h-.88c-.16,0-.26-.08-.26-.21A.2.2,0,0,1,11.66,2a.36.36,0,0,1,.19-.05c.64,0,1.22,0,1.78,0a.29.29,0,0,1,.21.08.19.19,0,0,1,.05.14A.22.22,0,0,1,13.64,2.36Zm-.26-1h-1c-.2,0-.24-.11-.25-.21A.2.2,0,0,1,12.21,1,.25.25,0,0,1,12.4.92h1.24a.22.22,0,0,1,.25.2.22.22,0,0,1-.05.14.27.27,0,0,1-.21.08ZM13,1.29h.61a.26.26,0,0,0,.17-.06.1.1,0,0,0,0-.1c0-.11-.07-.16-.19-.16H12.4a.21.21,0,0,0-.15.05.12.12,0,0,0,0,.11c0,.11.06.16.19.16H13Z"/><path class="cls-1" d="M4.69,11.36l-.91.9a.4.4,0,0,0-.13.31c0,.57,0,1.13,0,1.7,0,.23-.07.31-.3.31h-3c-.23,0-.3-.08-.3-.3V11.64c0-.2.08-.29.28-.29H4.69ZM1.84,12.64h.91c.13,0,.21-.06.21-.19s-.09-.18-.21-.18H.94a.29.29,0,0,0-.19.1c-.09.13,0,.27.19.27Zm-.29,1h.62c.15,0,.24-.07.23-.19s-.11-.18-.23-.18H1c-.15,0-.24.08-.23.19s.1.18.23.18Z"/><path d="M1.82,14.61H.33c-.24,0-.33-.09-.33-.33V11.64c0-.22.1-.32.31-.32H4.74l0,0-.26.26-.64.64a.35.35,0,0,0-.12.29v1.7c0,.24-.09.34-.33.34Zm.55-3.23H.31c-.19,0-.26.07-.26.26v2.64c0,.21.07.27.28.27h3c.21,0,.28-.06.28-.28v-1.7a.43.43,0,0,1,.13-.33l.64-.63.23-.23H2.37Zm-.45,2.31H1c-.2,0-.25-.11-.26-.2a.2.2,0,0,1,.05-.15A.27.27,0,0,1,1,13.27H2.17c.16,0,.24.07.25.21a.16.16,0,0,1,0,.14.29.29,0,0,1-.21.08Zm-.55,0h.8a.21.21,0,0,0,.17-.06.18.18,0,0,0,0-.11c0-.11-.07-.15-.2-.15H1a.24.24,0,0,0-.18.06.17.17,0,0,0,0,.1c0,.11.08.16.21.16h.42Zm-.07-1H.94a.24.24,0,0,1-.23-.13.17.17,0,0,1,0-.18.31.31,0,0,1,.22-.11H2.75c.15,0,.23.08.23.2a.18.18,0,0,1,0,.16.25.25,0,0,1-.18.07H1.3Zm.63-.37h-1a.22.22,0,0,0-.17.09.13.13,0,0,0,0,.13.22.22,0,0,0,.19.1H2.75a.2.2,0,0,0,.14,0,.16.16,0,0,0,0-.12q0-.15-.18-.15H1.93Z"/><path class="cls-1" d="M9.9,11.35h4.3c.29,0,.35.06.35.35v2.56c0,.24-.07.32-.31.32h-3c-.23,0-.31-.08-.31-.31V12.56a.35.35,0,0,0-.12-.3c-.27-.25-.52-.52-.78-.78A.79.79,0,0,1,9.9,11.35Zm2.83,1.29h.88c.16,0,.26-.07.25-.19s-.11-.18-.24-.18H11.86c-.13,0-.23,0-.24.18s.08.19.24.19Zm.28,1h.6c.16,0,.26-.07.25-.19s-.11-.18-.24-.18H12.41c-.15,0-.24.07-.23.19s.11.18.24.18Z"/><path d="M12.74,14.61H11.23c-.25,0-.33-.09-.33-.34V14c0-.47,0-1,0-1.45a.38.38,0,0,0-.12-.28l-.59-.59L10,11.5l-.07-.08,0-.05,0,0H14.2c.3,0,.38.08.38.38v2.56c0,.26-.09.35-.34.35ZM10,11.38h0l.07.07.19.2.59.58a.42.42,0,0,1,.13.32v1.71c0,.22.07.28.28.28h3c.22,0,.28-.06.28-.29V11.7c0-.27,0-.32-.32-.32H10Zm3.41,2.31h-.95a.23.23,0,0,1-.27-.21.2.2,0,0,1,0-.14.27.27,0,0,1,.21-.07h1.21c.17,0,.25.07.27.21a.19.19,0,0,1-.05.14.3.3,0,0,1-.23.08Zm-.36,0h.6a.24.24,0,0,0,.19-.07.08.08,0,0,0,0-.09c0-.12-.07-.16-.21-.16H12.41a.25.25,0,0,0-.17,0,.11.11,0,0,0,0,.11c0,.11.07.16.21.16H13Zm-.79-1h-.36a.28.28,0,0,1-.22-.08.19.19,0,0,1-.05-.14.23.23,0,0,1,.26-.21h1.77c.17,0,.25.07.27.21a.19.19,0,0,1-.05.14.32.32,0,0,1-.23.08H12.22Zm-.37-.37c-.14,0-.2,0-.21.15a.15.15,0,0,0,0,.1.27.27,0,0,0,.19.07h1.75a.26.26,0,0,0,.19-.07.09.09,0,0,0,0-.1c0-.11-.07-.15-.21-.15H11.85Z"/><path class="cls-1" d="M3.75,7.3a3.54,3.54,0,1,1,3.53,3.55A3.54,3.54,0,0,1,3.75,7.3Zm6.49,0a3,3,0,1,0-3,3A3,3,0,0,0,10.24,7.31Z"/><path d="M7.28,10.87h0A3.57,3.57,0,0,1,3.72,7.3h0A3.57,3.57,0,0,1,7.29,3.73h0a3.58,3.58,0,0,1,3.55,3.58,3.57,3.57,0,0,1-3.57,3.56ZM3.78,7.3a3.51,3.51,0,0,0,3.5,3.52h0A3.52,3.52,0,0,0,10.8,7.31,3.53,3.53,0,0,0,7.3,3.78h0A3.52,3.52,0,0,0,3.78,7.3Zm3.51,3h0a3,3,0,0,1-3-3,3,3,0,0,1,3-3h0a3,3,0,0,1,3,3h0a3,3,0,0,1-3,3Zm0-5.92a2.93,2.93,0,0,0,0,5.86h0a2.92,2.92,0,0,0,2.92-2.92h0A2.93,2.93,0,0,0,7.3,4.37Z"/><path class="cls-1" d="M9.9,7.49l-.26.93c-.19,0-.36-.28-.5,0s.16.25.29.4l-.66.66c-.15-.13-.17-.42-.41-.28s0,.3.05.49l-.91.25c-.07-.19.07-.46-.22-.45s-.14.26-.2.45l-.93-.25.12-.22c.06-.11.06-.22-.06-.28S6,9.14,6,9.25l-.11.19a2.71,2.71,0,0,1-.68-.67c.11-.13.42-.16.26-.4s-.29,0-.49.06l-.25-.94H5a.18.18,0,0,0,.18-.19A.18.18,0,0,0,5,7.12H4.68l.25-.94c.19.05.35.27.49.06S5.28,6,5.14,5.82l.68-.68A1.46,1.46,0,0,0,6,5.38a.17.17,0,0,0,.24.07.18.18,0,0,0,.08-.25L6.15,5l.95-.26v.25c0,.13.06.22.19.22s.18-.09.18-.21a2.21,2.21,0,0,0,0-.26l.94.25c-.05.2-.28.36-.05.5s.26-.15.41-.29l.68.68A2.75,2.75,0,0,0,9.21,6a.17.17,0,0,0-.07.24.17.17,0,0,0,.25.08l.22-.12a2.48,2.48,0,0,1,.26.94H9.62a.17.17,0,0,0-.19.18c0,.12.07.18.19.19ZM7.47,7.12c0-.42,0-.82,0-1.21,0-.16-.07-.24-.18-.24s-.19.08-.19.23V7.25c0,.17.07.24.23.24h.89c.15,0,.23-.07.22-.19s-.1-.19-.23-.18Z"/><path d="M7.49,9.94v0a.51.51,0,0,1,0-.21.27.27,0,0,0,0-.19.17.17,0,0,0-.13,0c-.15,0-.15.09-.16.24a1.21,1.21,0,0,1,0,.19v0l-1-.26.06-.12.08-.13c.06-.12,0-.2,0-.25S6,9.16,6,9.26l-.07.12-.06.1,0,0a2.45,2.45,0,0,1-.68-.68h0v0s.1-.07.15-.11a.25.25,0,0,0,.15-.13.3.3,0,0,0,0-.13c-.08-.12-.15-.09-.28,0l-.18.08h0l-.28-1H5a.15.15,0,0,0,.16-.16A.15.15,0,0,0,5,7.14H4.65l.27-1h0l.17.08c.14.08.21.12.29,0a.24.24,0,0,0,0-.13A.33.33,0,0,0,5.29,6a.7.7,0,0,1-.17-.13h0l.71-.72,0,0,.06.09c0,.06.06.1.09.15a.15.15,0,0,0,.21,0,.14.14,0,0,0,.06-.21.74.74,0,0,0-.08-.15l0-.1,0,0,1-.28v.29a.17.17,0,0,0,0,.15.12.12,0,0,0,.11,0h0c.1,0,.16-.06.16-.18V4.66l1,.26V5a.48.48,0,0,1-.08.18c-.07.13-.11.21,0,.29s.18,0,.26-.12a.67.67,0,0,1,.12-.16l0,0,.72.72h0l-.09.06L9.22,6a.16.16,0,0,0-.06.21.15.15,0,0,0,.22.07l.14-.08.07,0,0,0v0a2.33,2.33,0,0,1,.26.94v0H9.62c-.08,0-.16,0-.16.16a.14.14,0,0,0,.16.16h.31l-.27,1h0a.58.58,0,0,1-.18-.08c-.07,0-.14-.08-.2-.06a.19.19,0,0,0-.09.09c-.07.13,0,.18.12.25a.67.67,0,0,1,.16.12l0,0-.7.7v0a.51.51,0,0,1-.13-.16c-.07-.13-.12-.2-.25-.12s-.1.15,0,.29a.37.37,0,0,1,.08.18v0Zm-.2-.51a.25.25,0,0,1,.16.05.33.33,0,0,1,0,.23c0,.06,0,.12,0,.17l.86-.24s-.05-.09-.07-.14-.15-.25,0-.36.26,0,.33.14a.73.73,0,0,0,.09.13l.63-.62a.51.51,0,0,0-.13-.09c-.12-.07-.25-.15-.15-.33a.29.29,0,0,1,.13-.12c.08,0,.15,0,.23.07a.51.51,0,0,0,.15.07l.23-.87H9.62A.2.2,0,0,1,9.4,7.3a.21.21,0,0,1,.22-.21h.22a2.52,2.52,0,0,0-.24-.87l0,0-.15.07a.2.2,0,0,1-.29-.09A.2.2,0,0,1,9.19,6l.15-.09.07,0-.64-.64a1,1,0,0,0-.09.13c-.07.12-.15.25-.33.14s-.11-.24,0-.36L8.38,5,7.5,4.72V5a.2.2,0,0,1-.21.23.2.2,0,0,1-.15,0,.25.25,0,0,1-.06-.19V4.72L6.19,5l0,.07.08.14A.21.21,0,0,1,6,5.4l-.1-.15,0-.07-.63.64.13.09c.08,0,.16.09.18.17a.24.24,0,0,1,0,.17c-.11.17-.24.1-.35,0L5,6.21l-.24.88H5a.2.2,0,0,1,.2.21.19.19,0,0,1-.2.21H4.71L5,8.39a.37.37,0,0,0,.14-.07c.12-.06.25-.14.35,0a.2.2,0,0,1,0,.17c0,.07-.1.12-.18.16l-.11.08a2.36,2.36,0,0,0,.63.63l0-.05.07-.12a.21.21,0,0,1,.3-.09c.12.06.14.17.07.31a.87.87,0,0,0-.08.14l0,.05.87.23a.76.76,0,0,0,0-.15c0-.14,0-.28.21-.29Zm.47-1.91H7.33c-.18,0-.25-.08-.25-.27V5.9a.28.28,0,0,1,.07-.21.24.24,0,0,1,.14-.05c.13,0,.21.1.21.27V7.09h.71a.22.22,0,0,1,.26.21.17.17,0,0,1-.05.14.28.28,0,0,1-.2.08ZM7.29,5.69a.15.15,0,0,0-.1,0,.24.24,0,0,0-.06.17V7.25c0,.16,0,.21.2.21h.89a.29.29,0,0,0,.17,0,.2.2,0,0,0,0-.11c0-.11-.07-.16-.21-.16H7.45V5.91c0-.14-.06-.22-.16-.22Z"/></g></g></svg>