<svg xmlns="http://www.w3.org/2000/svg" viewBox="0 0 15.83 14.53"><defs><style>.cls-1{fill:#fff;}</style></defs><title>Asset 24attendance 1</title><g id="Layer_2" data-name="Layer 2"><g id="Layer_1-2" data-name="Layer 1"><path class="cls-1" d="M7.9,10.89H1.28A1.23,1.23,0,0,1,0,9.91,1.62,1.62,0,0,1,0,9.6V1.31A1.2,1.2,0,0,1,1.31,0H14.5a1.24,1.24,0,0,1,1.31,1.31V9.59a1.21,1.21,0,0,1-1.3,1.3Zm7.42-2.16V1.31a.73.73,0,0,0-.8-.8H1.31a.73.73,0,0,0-.8.81V8.56a1,1,0,0,0,0,.17h1v-.2c0-.66,0-1.32,0-2A1.46,1.46,0,0,1,2.92,5.2a.26.26,0,0,1,.29.19l.27.76a.43.43,0,0,0,.09.1s.07-.06.08-.1c.09-.24.17-.48.26-.71S4,5.2,4.25,5.2H5.79a.5.5,0,0,0,.26-.08c.77-.49,1.54-1,2.31-1.5.35-.23.38-.22.64.1,0,0,0,0,0,0l2.26-1.49,0,0H7.56a.86.86,0,0,1-.16,0A.23.23,0,0,1,7.19,2c0-.17.1-.25.34-.25h6.61a.22.22,0,0,1,.19.22.23.23,0,0,1-.18.25.42.42,0,0,1-.16,0H11.58c.16.24.15.35-.07.49l-2,1.36-.14.1a.16.16,0,0,0,0,.06c.18.27.17.35-.08.54L7.37,6.22a1.84,1.84,0,0,1-1.1.41.58.58,0,0,0-.58.56c0,.51,0,1,0,1.54Z"/><path d="M4.27,10.91h-3A1.24,1.24,0,0,1,0,9.92,1.72,1.72,0,0,1,0,9.6V1.31A1.23,1.23,0,0,1,1.31,0H14.5a1.26,1.26,0,0,1,1.33,1.33V9.59a1.24,1.24,0,0,1-1.32,1.32H4.27ZM7.9,0H1.31A1.18,1.18,0,0,0,0,1.31V9.6a1.63,1.63,0,0,0,0,.31,1.17,1.17,0,0,0,1.21.95H14.51a1.18,1.18,0,0,0,1.28-1.27V1.33A1.22,1.22,0,0,0,14.5,0Zm7.44,8.71H5.71v0c0-.15,0-.31,0-.46q0-.54,0-1.08a.59.59,0,0,1,.6-.58A1.79,1.79,0,0,0,7.35,6.2l1.29-1,.62-.47c.24-.19.25-.26.08-.51l0,0,0,0,.06,0L9.45,4l.8-.53,1.25-.83c.1-.07.15-.13.16-.19s0-.14-.1-.26l0,0h2.6A.21.21,0,0,0,14.31,2a.2.2,0,0,0-.18-.2H7.53a.44.44,0,0,0-.27.07.25.25,0,0,0,0,.16.21.21,0,0,0,.19.22h3.89l0,.06L9,3.75H9l0,0c-.25-.31-.27-.31-.6-.09L7.83,4,6.06,5.13a.53.53,0,0,1-.27.08H4.25c-.21,0-.25,0-.32.22l-.08.23-.18.49a.13.13,0,0,1-.06.07l0,0v0l0,0,0,0-.06-.08c-.1-.28-.19-.52-.27-.76a.25.25,0,0,0-.27-.18A1.45,1.45,0,0,0,1.51,6.55c0,.46,0,.92,0,1.37,0,.21,0,.41,0,.61v.22H.5V1.32A.75.75,0,0,1,1.31.49H14.52a.74.74,0,0,1,.82.82V8.75Zm-9.59,0H15.3V1.31a.71.71,0,0,0-.78-.78H1.31a.71.71,0,0,0-.78.79V8.71h.91V7.92c0-.45,0-.92,0-1.37A1.48,1.48,0,0,1,2.92,5.18a.28.28,0,0,1,.31.21l.27.76,0,.06h0v0l0-.06.18-.49c0-.07,0-.15.08-.22s.13-.25.36-.25H5.79A.55.55,0,0,0,6,5.1L7.81,4l.54-.36c.36-.23.4-.22.66.11H9l2.23-1.46H7.4A.25.25,0,0,1,7.17,2a.24.24,0,0,1,.06-.18.41.41,0,0,1,.3-.09h6.61a.25.25,0,0,1,.21.24.25.25,0,0,1-.19.27.23.23,0,0,1-.14,0h-2.4a.4.4,0,0,1,.09.26.41.41,0,0,1-.19.22l-1.24.82-.81.54-.1.06,0,0h0l0,0c.19.27.17.37-.09.57l-.62.47-1.28,1a1.88,1.88,0,0,1-1.11.41.56.56,0,0,0-.56.54q0,.54,0,1.08C5.74,8.42,5.75,8.56,5.75,8.71Z"/><path class="cls-1" d="M6,12.59v-1.2H9.85v1.2H11.4a.9.9,0,0,1,.88.65,1,1,0,0,1-.38,1.09,1.1,1.1,0,0,1-.52.17h-7a.94.94,0,0,1-.93-.93.93.93,0,0,1,.88-1c.47,0,1,0,1.42,0Z"/><path d="M7.35,14.53h-3a1,1,0,0,1-.95-1,1,1,0,0,1,.9-1H5.94V11.37H9.87v1.19H11.4a.93.93,0,0,1,.9.66,1,1,0,0,1-.39,1.12,1.06,1.06,0,0,1-.53.17ZM5,12.61H4.34a.91.91,0,0,0-.87,1,.93.93,0,0,0,.91.91h7a1,1,0,0,0,.88-1.23.89.89,0,0,0-.86-.64H9.82v-1.2H6v1.2H5Z"/><path class="cls-1" d="M3.58,4.72A1.28,1.28,0,1,1,4.87,3.46,1.27,1.27,0,0,1,3.58,4.72Z"/><path d="M3.59,4.75h0a1.31,1.31,0,0,1-.9-2.24,1.3,1.3,0,0,1,1.85,0,1.26,1.26,0,0,1,.36.92A1.3,1.3,0,0,1,3.59,4.75Zm0-2.57a1.23,1.23,0,0,0-.87.36,1.29,1.29,0,0,0-.38.89A1.25,1.25,0,0,0,3.58,4.7h0A1.24,1.24,0,0,0,4.85,3.46a1.22,1.22,0,0,0-.35-.89,1.31,1.31,0,0,0-.9-.39Z"/><path class="cls-1" d="M11,7H7.88c-.2,0-.31-.1-.29-.27a.22.22,0,0,1,.2-.22H14a.85.85,0,0,1,.16,0,.23.23,0,0,1,.2.25.21.21,0,0,1-.21.23H11Z"/><path d="M14,7H7.88A.34.34,0,0,1,7.62,7a.32.32,0,0,1-.06-.2.25.25,0,0,1,.23-.24h6.34a.25.25,0,0,1,.22.27.23.23,0,0,1-.23.25ZM14,7h.17a.19.19,0,0,0,.19-.21.21.21,0,0,0-.19-.23H7.8a.2.2,0,0,0-.19.2.23.23,0,0,0,0,.17A.32.32,0,0,0,7.88,7H14Z"/><path class="cls-1" d="M11.92,5.44h-2a.75.75,0,0,1-.21,0,.19.19,0,0,1-.16-.22A.65.65,0,0,1,9.66,5s.1,0,.15,0H14a.36.36,0,0,1,.18,0,.24.24,0,0,1-.06.46H11.92Z"/><path d="M11,5.46H9.67a.22.22,0,0,1-.18-.25A.67.67,0,0,1,9.65,5a.16.16,0,0,1,.14,0H14a.5.5,0,0,1,.19,0,.26.26,0,0,1,.16.29.24.24,0,0,1-.22.21H11ZM9.76,5H9.68a.57.57,0,0,0-.15.23.17.17,0,0,0,.15.19.68.68,0,0,0,.2,0h4.26a.21.21,0,0,0,.19-.17A.21.21,0,0,0,14.19,5,.4.4,0,0,0,14,5H9.76Z"/><path class="cls-1" d="M12.52,3.35h1.53c.12,0,.22,0,.27.15a.25.25,0,0,1-.23.34H11c-.12,0-.23,0-.29-.13A.24.24,0,0,1,11,3.35Z"/><path d="M11,3.86a.29.29,0,0,1-.3-.14.3.3,0,0,1,0-.26A.3.3,0,0,1,11,3.33h3.07a.28.28,0,0,1,.29.16.31.31,0,0,1,0,.25.31.31,0,0,1-.23.12H11Zm.62-.49H11a.24.24,0,0,0-.22.11.22.22,0,0,0,0,.22c.05.11.15.12.27.12h3.06a.22.22,0,0,0,.21-.3c0-.1-.11-.14-.25-.14H11.64Z"/></g></g></svg>