<svg xmlns="http://www.w3.org/2000/svg" viewBox="0 0 15 14"><defs><style>.cls-1{fill:#fff;}.cls-2{fill:#050505;}</style></defs><title>Asset 18DASHBOARD</title><g id="Layer_2" data-name="Layer 2"><g id="Layer_1-2" data-name="Layer 1"><path class="cls-1" d="M9.05,0h5a1.19,1.19,0,0,1,.65.38,3.93,3.93,0,0,1,.26.5V7.3s0,0,0,0a1.1,1.1,0,0,1-1.2.85H9.32a2.33,2.33,0,0,1-.37,0,1,1,0,0,1-.83-1v-6a1,1,0,0,1,.71-1Z"/><path class="cls-2" d="M11.94,8.18H9.32a1.43,1.43,0,0,1-.38,0,1,1,0,0,1-.83-1.05v-6a1,1,0,0,1,.71-1L9,0l.07,0h5a1.11,1.11,0,0,1,.66.38,2.37,2.37,0,0,1,.19.35A1,1,0,0,0,15,.88h0V7.3h0a1.1,1.1,0,0,1-1.21.85H11.94ZM9.05,0,9,.05l-.15,0a1,1,0,0,0-.69,1c0,.51,0,1,0,1.53V7.09a1,1,0,0,0,.81,1,1.9,1.9,0,0,0,.37,0h4.45A1.08,1.08,0,0,0,15,7.32s0,0,0,0h0V.89L14.9.74A1.83,1.83,0,0,0,14.72.4,1.13,1.13,0,0,0,14.08,0Z"/><path class="cls-1" d="M0,13.14V6.7l0,0a1.1,1.1,0,0,1,1.2-.85H5.71a1.06,1.06,0,0,1,1.17,1.1v6a1,1,0,0,1-.63,1L6,14H1a1.17,1.17,0,0,1-.8-.54C.09,13.35.06,13.24,0,13.14Z"/><path class="cls-2" d="M6,14H1a1.13,1.13,0,0,1-.81-.54,1.47,1.47,0,0,1-.1-.22l0-.09H0V6.7H0a1.12,1.12,0,0,1,1.22-.85H5.71A1.07,1.07,0,0,1,6.89,6.93v6a1,1,0,0,1-.63,1L6.05,14,6,14ZM1,14H6l.09,0,.2-.07a1,1,0,0,0,.62-1v-6A1,1,0,0,0,5.71,5.85H1.23A1.09,1.09,0,0,0,0,6.68s0,0,0,0H0v6.44l0,.09a1,1,0,0,0,.09.21A1.08,1.08,0,0,0,1,14Z"/><path class="cls-1" d="M6,0a3.36,3.36,0,0,1,.54.26.92.92,0,0,1,.39.79V3.63a1.05,1.05,0,0,1-1.11,1H1.13A1.07,1.07,0,0,1,0,3.87s0,0,0-.06V.86L.07.72A1,1,0,0,1,.64.12L.92,0Z"/><path class="cls-2" d="M3.56,4.69H1.13A1.09,1.09,0,0,1,0,3.87l0,0v0H0V.86H0l0,0,0-.09A1.07,1.07,0,0,1,.63.1L.83,0,.92,0H6l.17.07A1.62,1.62,0,0,1,6.5.26a.91.91,0,0,1,.39.8v.32c0,.74,0,1.5,0,2.25a1.06,1.06,0,0,1-1.12,1ZM0,3.8v0s0,0,0,.05a1,1,0,0,0,1.07.79H5.77a1,1,0,0,0,1.09-1c0-.75,0-1.51,0-2.25V1.06A.89.89,0,0,0,6.48.28,1.73,1.73,0,0,0,6.12.1L6,0h-5L.84.06.65.13a1,1,0,0,0-.57.6l0,.09,0,0Z"/><path class="cls-1" d="M9.05,14c-.1,0-.21-.06-.31-.11A1,1,0,0,1,8.13,13c0-.88,0-1.75,0-2.63a1,1,0,0,1,1.12-1h4.56a1.07,1.07,0,0,1,1.15.83l0,0v2.92a4.3,4.3,0,0,1-.24.48,1.13,1.13,0,0,1-.7.4Z"/><path class="cls-2" d="M14.05,14H9L9,14l-.22-.08A1,1,0,0,1,8.11,13c0-1,0-1.86,0-2.63a1.08,1.08,0,0,1,1.14-1h4.56a1.1,1.1,0,0,1,1.17.84v0h0v2.93l-.07.15a2,2,0,0,1-.17.32,1.11,1.11,0,0,1-.71.41Zm-5,0h5a1.06,1.06,0,0,0,.69-.39,1.37,1.37,0,0,0,.16-.32,1,1,0,0,0,.07-.15V10.2h0l0,0a1.07,1.07,0,0,0-1.14-.82H9.25a1,1,0,0,0-1.11,1c0,.77,0,1.61,0,2.63a1,1,0,0,0,.6.9l.21.07Z"/></g></g></svg>