<svg xmlns="http://www.w3.org/2000/svg" viewBox="0 0 13.33 16.83"><title>Asset 6exam</title><g id="Layer_2" data-name="Layer 2"><g id="Layer_1-2" data-name="Layer 1"><path d="M6.14,0H7.19A2.38,2.38,0,0,0,9.84,1.06c.76-.06,1.52,0,2.28,0a1.07,1.07,0,0,1,1.2,1.19q0,6.69,0,13.39a1.07,1.07,0,0,1-1.19,1.2q-5.46,0-10.94,0A1.07,1.07,0,0,1,0,15.63V2.24A1.08,1.08,0,0,1,1.21,1.05c.76,0,1.52-.05,2.27,0C4.57,1.16,5.54,1.07,6.14,0ZM4.25,2.75H9.06V1.8a2.62,2.62,0,0,0-.31,0c-.64,0-1.3.17-1.59-.77C7,.5,6.21.61,6,1.19s-.46.59-.9.57c-.28,0-.57,0-.88,0ZM9,11.25a7.15,7.15,0,0,0-.59-.54c-.14-.09-.35-.05-.53-.07,0,.18,0,.4,0,.52a8.16,8.16,0,0,0,.81.89,5.72,5.72,0,0,0-.81.64c-.09.1,0,.34,0,.52.18,0,.4,0,.53-.07a8.88,8.88,0,0,0,.82-.76,4.31,4.31,0,0,0,.63.72c.14.11.39.06.59.08a1.43,1.43,0,0,0-.1-.53A5.73,5.73,0,0,0,9.71,12a.58.58,0,0,1,0-.14l.69-1.17Zm.1-3.4a3.15,3.15,0,0,0-.6-.55,2.28,2.28,0,0,0-.65-.14A1.76,1.76,0,0,0,8,7.75a3.19,3.19,0,0,0,.81.79.7.7,0,0,0,.69-.07,15.8,15.8,0,0,0,1.22-1.8c.09-.16,0-.41,0-.61-.21.09-.49.12-.62.28C9.74,6.79,9.44,7.29,9.07,7.85ZM4.52,7.71c.53,0,1.06,0,1.58,0,.18,0,.35-.21.53-.32C6.46,7.26,6.3,7,6.13,7,5.08,7,4,7,3,7c-.16,0-.32.24-.48.37.18.1.36.28.55.3C3.53,7.74,4,7.71,4.52,7.71Zm0,4.56c.52,0,1,0,1.57,0,.18,0,.34-.23.51-.35-.18-.11-.35-.31-.53-.32q-1.53,0-3.06,0c-.19,0-.37.2-.55.3.19.13.37.34.57.37A14.79,14.79,0,0,0,4.55,12.27Z"/></g></g></svg>