<svg xmlns="http://www.w3.org/2000/svg" viewBox="0 0 12.5 15.77"><defs><style>.cls-1{fill:#fff;}</style></defs><title>Asset 26exam</title><g id="Layer_2" data-name="Layer 2"><g id="Layer_1-2" data-name="Layer 1"><path class="cls-1" d="M5.76,0h1A2.26,2.26,0,0,0,9.22,1c.7-.06,1.41,0,2.12,0a1,1,0,0,1,1.12,1.1q0,6.26,0,12.5a1,1,0,0,1-1.11,1.11H1.14A1,1,0,0,1,0,14.62Q0,8.36,0,2.12A1,1,0,0,1,1.16,1C1.87,1,2.58,1,3.28,1A2.26,2.26,0,0,0,5.76,0ZM4,2.59H8.5V1.7l-.43,0c-.55,0-1.1.14-1.33-.68-.13-.48-.91-.41-1.06.12s-.55.56-1,.56c-.24,0-.47,0-.71,0ZM9.17,11a2.72,2.72,0,0,0,.44-.48A1.64,1.64,0,0,0,9.74,10a1.63,1.63,0,0,0-.55.09,6.07,6.07,0,0,0-.66.6A5.63,5.63,0,0,0,7.84,10c-.12-.08-.33,0-.5,0,0,.17,0,.37.07.49a6.78,6.78,0,0,0,.71.77,4.23,4.23,0,0,0-.68.59c-.09.13-.05.36-.07.55a1.52,1.52,0,0,0,.49-.09,5.74,5.74,0,0,0,.62-.57l.13,0,1.1.64ZM8.49,7.35a4.89,4.89,0,0,0-.65-.6c-.12-.08-.32,0-.49-.06,0,.17,0,.38.05.49A10.57,10.57,0,0,0,8.13,8c.33.36.59.28.84-.1s.71-1,1-1.57c.09-.16,0-.41,0-.62-.18.08-.41.12-.52.26C9.13,6.37,8.83,6.85,8.49,7.35ZM4.24,7.23c.51,0,1,0,1.55,0,.15,0,.28-.18.43-.28C6.09,6.82,6,6.6,5.85,6.6c-1,0-2.07,0-3.11,0-.13,0-.25.2-.38.31.13.11.26.29.41.3C3.25,7.25,3.75,7.23,4.24,7.23Zm.07,3.61c-.51,0-1,0-1.55,0-.14,0-.27.2-.4.3.13.11.25.31.39.31,1,0,2,0,3,0,.15,0,.3-.23.45-.35-.15-.09-.29-.26-.44-.27A14.4,14.4,0,0,0,4.31,10.84Z"/><path d="M6.26,15.77H1.14A1,1,0,0,1,0,14.62V2.12A1,1,0,0,1,1.16,1h.58c.51,0,1,0,1.55,0,1.08.09,1.91,0,2.44-1V0h1V0C7.3,1,8.13,1.08,9.21,1c.52,0,1,0,1.55,0h.58A1,1,0,0,1,12.5,2.12v12.5a1,1,0,0,1-1.15,1.15ZM2.45,1H1.16A1,1,0,0,0,.07,2.12v12.5A1,1,0,0,0,1.14,15.7c3.32,0,6.76,0,10.21,0a1,1,0,0,0,1.08-1.08V2.12a1,1,0,0,0-1.09-1.07h-.58c-.51,0-1,0-1.54,0-1.11.09-2,0-2.5-1H5.78a2.28,2.28,0,0,1-2.5,1C3,1,2.73,1,2.45,1ZM9.78,12.45l-.3-.17-.88-.52H8.49l-.15.15a3.06,3.06,0,0,1-.46.42.78.78,0,0,1-.35.08h-.2v-.05a.91.91,0,0,0,0-.17.63.63,0,0,1,.08-.39,2.08,2.08,0,0,1,.43-.4l.22-.17L7.84,11a5.21,5.21,0,0,1-.46-.52.65.65,0,0,1-.07-.35v-.2h.2a.55.55,0,0,1,.34.05,2.79,2.79,0,0,1,.48.43l.2.19.18-.17a2.87,2.87,0,0,1,.46-.4A.83.83,0,0,1,9.56,10h.23V10a1.13,1.13,0,0,0,0,.18,1,1,0,0,1-.11.39,2.4,2.4,0,0,1-.36.4L9.21,11ZM7.38,10v.13a.58.58,0,0,0,0,.31,4.24,4.24,0,0,0,.46.51l.25.26,0,0,0,0-.25.2a2,2,0,0,0-.42.39.63.63,0,0,0-.06.35.71.71,0,0,1,0,.14h.13a.71.71,0,0,0,.31-.07,4.4,4.4,0,0,0,.46-.4l.16-.17h.1l.07,0,.89.52.12.07L9.13,11l0,0,.08-.08a2.4,2.4,0,0,0,.36-.4.83.83,0,0,0,.09-.36c0-.05,0-.09,0-.14H9.57a.77.77,0,0,0-.36.07,2.87,2.87,0,0,0-.46.4l-.2.2,0,0,0,0-.22-.22a3.55,3.55,0,0,0-.47-.42A.62.62,0,0,0,7.51,10Zm-3,1.52-1.58,0c-.11,0-.2-.11-.3-.2a.46.46,0,0,0-.12-.12l0,0,0,0L2.46,11c.09-.09.19-.19.3-.19a10.65,10.65,0,0,1,1.13,0H4.7c.36,0,.73,0,1.09,0A.66.66,0,0,1,6.1,11l.14.11,0,0,0,0-.14.13c-.1.11-.21.22-.33.22Zm-1.92-.37.09.1c.09.09.17.18.25.18,1.07,0,2.06,0,3,0,.09,0,.19-.1.28-.2l.11-.1L6.06,11a.67.67,0,0,0-.28-.16c-.36,0-.72,0-1.08,0H3.89c-.37,0-.75,0-1.13,0a.56.56,0,0,0-.25.18ZM8.53,8.22A.6.6,0,0,1,8.11,8l-.3-.3a4.89,4.89,0,0,1-.44-.47.56.56,0,0,1,0-.35v-.2h.2a.65.65,0,0,1,.35.06,2.62,2.62,0,0,1,.44.39l.19.19c.09-.13.17-.26.25-.39.24-.35.46-.69.7-1a.79.79,0,0,1,.36-.2L10,5.63l0,0v.06a1.5,1.5,0,0,0,0,.2.72.72,0,0,1,0,.44c-.2.34-.42.68-.65,1L9,7.87c-.15.22-.29.33-.44.34ZM7.38,6.73a.56.56,0,0,1,0,.13.56.56,0,0,0,0,.3,3.12,3.12,0,0,0,.43.46l.3.3a.51.51,0,0,0,.4.23c.12,0,.25-.12.38-.32l.38-.57a11.35,11.35,0,0,0,.64-1,.63.63,0,0,0,0-.39.88.88,0,0,1,0-.16l-.14,0a.77.77,0,0,0-.32.18c-.25.32-.47.66-.7,1l-.28.42,0,0,0,0-.22-.21a2.93,2.93,0,0,0-.43-.38.58.58,0,0,0-.31,0Zm-2.29.54H3.81c-.34,0-.7,0-1.05,0a.57.57,0,0,1-.3-.2l-.12-.11,0,0,0,0,.11-.12a.55.55,0,0,1,.29-.21c1,0,2.09,0,3.11,0,.1,0,.19.11.28.21a.69.69,0,0,0,.11.13l0,0,0,0a.69.69,0,0,0-.13.11.69.69,0,0,1-.32.18Zm-.85-.08h.42c.37,0,.75,0,1.13,0A.64.64,0,0,0,6.06,7l.11-.09a.41.41,0,0,1-.09-.1c-.08-.1-.16-.19-.23-.2-1,0-2.07,0-3.11,0-.07,0-.16.1-.24.18l-.09.1.1.09a.48.48,0,0,0,.26.18c.34,0,.7,0,1,0ZM8.53,2.62H4V1.68H4l.22,0,.49,0h.07c.4,0,.72,0,.88-.54A.65.65,0,0,1,6.28.64h0A.48.48,0,0,1,6.77,1c.19.67.59.67,1.06.66h.7ZM4,2.55H8.46V1.73H8.34l-.27,0H7.83c-.45,0-.92,0-1.12-.71A.42.42,0,0,0,6.28.7h0a.59.59,0,0,0-.57.42c-.16.59-.54.59-.94.59H4.7l-.49,0L4,1.75Z"/></g></g></svg>