<?xml version="1.0" encoding="UTF-8"?>
<svg version="1.1" xmlns="http://www.w3.org/2000/svg" width="512" height="512">
<path d="M0 0 C2.24609375 2.07421875 2.24609375 2.07421875 4.4375 4.6875 C7.0562022 7.74849137 9.64879547 10.71748122 12.5625 13.5 C15 16 15 16 15 18 C13.73542969 18.03738281 12.47085938 18.07476562 11.16796875 18.11328125 C9.5077827 18.17893833 7.84762778 18.24538576 6.1875 18.3125 C5.35412109 18.33505859 4.52074219 18.35761719 3.66210938 18.38085938 C2.85966797 18.41630859 2.05722656 18.45175781 1.23046875 18.48828125 C0.49207764 18.51446533 -0.24631348 18.54064941 -1.00708008 18.56762695 C-3.5186288 19.11251888 -4.41826922 20.00760159 -6 22 C-6.96097201 24.88291602 -7.22621077 26.37357018 -6.1875 29.25 C-5.10600632 31.15074924 -5.10600632 31.15074924 -3 32 C-0.46265067 32.10205956 2.04750965 32.14338573 4.58531189 32.14044189 C5.77301385 32.14489858 5.77301385 32.14489858 6.9847098 32.1494453 C9.65249612 32.15815505 12.32023768 32.15964245 14.98803711 32.16113281 C16.89477129 32.16575931 18.80150453 32.17078374 20.70823669 32.17617798 C25.89823646 32.18931865 31.08822329 32.19574997 36.2782371 32.20018864 C39.51757594 32.20311617 42.7569112 32.20722032 45.99624825 32.21169281 C56.1223432 32.22537102 66.24843004 32.23503656 76.37453359 32.2388947 C88.08082937 32.24337892 99.78700859 32.26094234 111.49326891 32.2898953 C120.53107569 32.31147602 129.56884959 32.32159702 138.60668188 32.32293582 C144.00981054 32.32398628 149.41282968 32.32994524 154.81593132 32.34775543 C159.8958073 32.36417422 164.9754907 32.36642191 170.05538368 32.35761642 C171.9230844 32.35684276 173.79079521 32.36123179 175.65847015 32.37107468 C178.20178099 32.38369559 180.74439949 32.37797171 183.28770447 32.36749268 C184.03244567 32.37554908 184.77718688 32.38360548 185.544496 32.39190602 C189.48681178 32.36222403 189.48681178 32.36222403 192.93123722 30.62937546 C194.39873509 28.39211096 194.80495214 26.66565409 195 24 C194.02269781 21.29362471 193.59487555 20.29743778 191 19 C189.6265365 18.84995027 188.2471474 18.75161994 186.8671875 18.68359375 C185.65869141 18.62075195 185.65869141 18.62075195 184.42578125 18.55664062 C183.58402344 18.51732422 182.74226563 18.47800781 181.875 18.4375 C181.02550781 18.39431641 180.17601562 18.35113281 179.30078125 18.30664062 C177.20071777 18.20045764 175.10038052 18.09971503 173 18 C174.5893017 14.01263951 177.39702455 11.40965969 180.4375 8.5 C183.54761252 5.50023313 186.52181127 2.56187125 189 -1 C195.81723627 -0.3539501 202.06277027 1.77824849 208.5546875 3.8828125 C209.82524386 4.29004139 211.09597553 4.69672364 212.36686707 5.10290527 C215.10277166 5.97836761 217.83757731 6.8571522 220.57156372 7.73858643 C227.18596641 9.87081658 233.80579339 11.98611666 240.42495155 14.10352707 C242.76214806 14.85138694 245.09912401 15.59993311 247.43608093 16.34854126 C259.04528336 20.06554577 270.66586156 23.74566236 282.29296875 27.40625 C283.12460793 27.66807949 283.9562471 27.92990898 284.81308746 28.1996727 C291.36902976 30.26329077 297.92567335 32.32467636 304.48244476 34.38565826 C309.10042205 35.83723126 313.71824802 37.28928316 318.33584023 38.74208069 C320.40241706 39.39197382 322.46928418 40.04093704 324.53617859 40.68981934 C331.04423873 42.73679822 337.53637043 44.81660851 344 47 C344 47.66 344 48.32 344 49 C281.0230558 69.09107169 281.0230558 69.09107169 253.10644531 77.83883667 C251.03778309 78.48722425 248.96942258 79.13657527 246.90136719 79.78689575 C244.06015623 80.67988489 241.21779818 81.56911007 238.375 82.45703125 C237.54484375 82.71848938 236.7146875 82.97994751 235.859375 83.24932861 C230.22965836 85 230.22965836 85 228 85 C228 90.28 228 95.56 228 101 C229.76988281 100.4225 231.53976562 99.845 233.36328125 99.25 C235.67961334 98.49977098 237.99602366 97.74978349 240.3125 97 C242.06336914 96.42765625 242.06336914 96.42765625 243.84960938 95.84375 C244.96787109 95.4828125 246.08613281 95.121875 247.23828125 94.75 C248.26993408 94.41484375 249.30158691 94.0796875 250.36450195 93.734375 C253 93 253 93 256 93 C256 112.47 256 131.94 256 152 C232 160 232 160 228 160 C227.89827305 167.72929019 227.85190605 175.45685849 227.87302971 183.18667889 C227.8811713 186.77767251 227.87141762 190.36662319 227.81835938 193.95727539 C226.66844034 212.68863078 226.66844034 212.68863078 234.0703125 228.95703125 C234.98828613 229.78823486 235.90625977 230.61943848 236.85205078 231.47583008 C239.14563091 234.17113867 239.34795678 234.7683671 239.43701172 238.12768555 C239 242 239 242 236.9375 245 C233.23727467 247.51930235 231.3968344 247.7066341 227 247 C223.77381267 244.9209015 222.1330698 243.19960471 220 240 C216.29346269 241.23551244 215.35084565 242.96665078 213 246 C209.86128812 247.56935594 207.46144178 247.35201103 204 247 C201.0625 245 201.0625 245 199 242 C198.65926938 238.99170194 198.44453532 236.90269714 199 234 C201.15316772 231.39631653 201.15316772 231.39631653 203.93896484 228.81567383 C212.37924465 219.32225768 210.26315786 205.92698735 210.01393938 194.03688407 C209.95083818 190.51240085 209.94550673 186.9878058 209.9336853 183.46284485 C209.90277299 176.80781735 209.82095068 170.15445959 209.72019041 163.5001629 C209.60787995 155.91620432 209.5533011 148.33216014 209.50323606 140.74757516 C209.39909492 125.16408768 209.2235441 109.58226029 209 94 C176.46471445 83.6561345 143.92681983 73.32262997 111.34838867 63.11523438 C110.36810196 62.80790375 109.38781525 62.50057312 108.37782288 62.18392944 C106.49751317 61.59589152 104.61646629 61.01020433 102.73460388 60.42715454 C98.55714915 59.13087831 94.39695495 57.80664011 90.26123047 56.38232422 C89.530327 56.13639023 88.79942352 55.89045624 88.04637146 55.6370697 C86.12415912 54.98743619 84.20812418 54.31960035 82.29272461 53.65014648 C78.44892301 52.89119018 76.52354353 53.36791843 73 55 C70.719279 56.87424716 70.719279 56.87424716 70.625 59.875 C71.09184128 63.76534399 72.03187405 64.53251946 75 67 C77.64312414 68.23100592 77.64312414 68.23100592 80.63427734 69.09960938 C81.77385391 69.46138275 82.91343048 69.82315613 84.08753967 70.19589233 C85.32451096 70.57468536 86.56148224 70.95347839 87.8359375 71.34375 C89.14088103 71.75302946 90.44547556 72.16342312 91.7497406 72.57485962 C94.51899063 73.44586576 97.29050074 74.30907839 100.06411743 75.16607666 C104.37831224 76.49911391 108.68693081 77.84955263 112.99487305 79.20263672 C120.6985505 81.61973449 128.40758641 84.01938131 136.11795807 86.4150238 C143.54982946 88.72499776 150.97889334 91.04387715 158.40484619 93.37280273 C160.77054281 94.11189177 163.13871468 94.84257449 165.50732422 95.57226562 C166.90731132 96.00884287 168.30721955 96.44567319 169.70703125 96.8828125 C170.8875708 97.24777832 172.06811035 97.61274414 173.28442383 97.98876953 C176 99 176 99 178 101 C167.02265959 104.73593594 156.01887821 108.38865617 145 112 C144.0085498 112.32530701 143.01709961 112.65061401 141.99560547 112.98577881 C135.57638814 115.08852641 129.14981693 117.16667286 122.71459961 119.21994019 C120.57931642 119.90415274 118.44598321 120.59448221 116.31469727 121.29104614 C113.28784855 122.27868529 110.25454053 123.24337921 107.21875 124.203125 C106.31987061 124.50151779 105.42099121 124.79991058 104.49487305 125.10734558 C93.97463781 128.37149618 85.80932441 125.57070462 75.58984375 122.23046875 C73.73157664 121.63518223 71.87330831 121.03989953 70.01499462 120.44475842 C68.02977841 119.80724209 66.04593533 119.16561214 64.06243896 118.52276611 C59.85839739 117.16052012 55.65060012 115.81016035 51.44189453 114.46240234 C50.72679089 114.23338982 50.01168724 114.00437729 49.27491379 113.76842499 C47.81646879 113.30139552 46.35800949 112.83441071 44.89953613 112.36746979 C42.67602373 111.65522889 40.45285305 110.94192945 38.22973633 110.22845459 C28.50815175 107.11034425 18.77457513 104.03305865 9.02734375 100.99609375 C8.38119299 100.79476963 7.73504223 100.59344551 7.06931114 100.38602066 C3.81087062 99.37113023 0.55213585 98.35718826 -2.70675659 97.34375 C-28.13059908 89.43709109 -53.51018553 81.39741224 -78.87075806 73.2902832 C-104.54623591 65.08280634 -130.25619383 56.99096247 -156 49 C-156 48.34 -156 47.68 -156 47 C-147.50192418 44.24404551 -139.0017371 41.49463734 -130.5 38.75 C-129.84990337 38.54012703 -129.19980675 38.33025406 -128.53001022 38.1140213 C-104.78243483 30.44985064 -80.98741156 22.94456876 -57.15785408 15.5394516 C-55.2428946 14.94429158 -53.32809653 14.34861232 -51.41329956 13.75292969 C-48.93794088 12.98324838 -46.46214012 12.21498723 -43.98587036 11.44824219 C-37.66280749 9.48341724 -31.36020285 7.46976584 -25.07763672 5.37988281 C-23.78191437 4.95185757 -22.48613376 4.52400868 -21.19029236 4.09634399 C-18.74495289 3.28608115 -16.30281265 2.46607696 -13.86451721 1.63485718 C-12.22699745 1.09364731 -12.22699745 1.09364731 -10.55639648 0.54150391 C-9.60087387 0.2188858 -8.64535126 -0.1037323 -7.66087341 -0.43612671 C-4.69194974 -1.06527981 -2.88063419 -0.91199029 0 0 Z " fill="#000000" transform="translate(162,222)"/>
<path d="M0 0 C4.86299196 3.74366286 9.24831885 7.98323889 13.63769531 12.26074219 C14.60255859 13.11539063 14.60255859 13.11539063 15.58691406 13.98730469 C33.13166006 29.93707378 42.42373683 56.25587497 43.76025391 79.38134766 C44.80636195 106.62453716 36.99713138 133.66592568 18.63769531 154.26074219 C18.0021875 155.02644531 17.36667969 155.79214844 16.71191406 156.58105469 C12.66937343 161.36081215 8.38524988 165.48783712 3.35107422 169.21994019 C0.68439372 171.16655411 0.68439372 171.16655411 -1.46655273 173.13772583 C-10.8595092 180.57440244 -21.99202664 179.27486074 -33.36230469 179.19042969 C-35.60710158 179.1951527 -37.85189496 179.20195267 -40.09667969 179.21072388 C-44.78713272 179.22100819 -49.47664865 179.20616061 -54.16699219 179.17333984 C-60.15586957 179.1334574 -66.14255071 179.15644037 -72.13134766 179.19834709 C-76.76253576 179.22373672 -81.39320982 179.21554839 -86.02441406 179.19745255 C-88.23144801 179.19280899 -90.43852982 179.1984213 -92.64550781 179.21480942 C-114.43402895 179.34112638 -114.43402895 179.34112638 -123.36230469 171.26074219 C-124.61998065 170.29322454 -125.88092012 169.3299071 -127.14746094 168.37402344 C-128.2487943 167.45092833 -129.34133988 166.51724629 -130.42480469 165.57324219 C-131.01277832 165.06269287 -131.60075195 164.55214355 -132.20654297 164.02612305 C-151.96380953 146.46201533 -164.0623428 121.572182 -166.36230469 95.26074219 C-167.94839321 67.97316414 -161.13126088 39.81510463 -142.79589844 18.87402344 C-141.9928125 18.01164062 -141.18972656 17.14925781 -140.36230469 16.26074219 C-139.91516113 15.7726709 -139.46801758 15.28459961 -139.00732422 14.78173828 C-103.61304807 -23.55294804 -42.63605572 -30.98741128 0 0 Z M-68.36230469 17.26074219 C-69.84062728 20.21738738 -69.42263251 23.00303956 -69.36230469 26.26074219 C-70.26980469 26.30199219 -71.17730469 26.34324219 -72.11230469 26.38574219 C-80.48489403 27.56473946 -89.8062413 32.84576507 -95.09277344 39.40917969 C-95.57359375 40.14394531 -96.05441406 40.87871094 -96.54980469 41.63574219 C-97.03835937 42.36535156 -97.52691406 43.09496094 -98.03027344 43.84667969 C-101.81887194 50.71282008 -102.44205829 57.57691424 -101.36230469 65.26074219 C-98.11729071 74.63084333 -93.33395641 82.80522786 -84.17236328 87.34619141 C-76.84715374 90.36854454 -69.6488071 91.56939927 -61.84082031 92.68261719 C-54.39883386 93.83749401 -46.61607112 95.30735682 -41.42480469 101.19824219 C-37.94964361 106.35832985 -36.80179707 109.80772994 -37.70605469 115.98339844 C-39.1226778 120.89941794 -42.21713902 124.02039156 -46.58496094 126.54589844 C-56.64272313 131.23056564 -66.29785729 131.35838294 -76.88183594 128.17871094 C-81.16022211 126.59537117 -84.29943497 124.42325594 -87.36230469 121.07324219 C-90.04737688 118.63989551 -91.75589654 118.26074219 -95.36230469 118.26074219 C-98.48936244 120.06748667 -99.98673246 121.34528489 -101.36230469 124.69824219 C-101.36230469 128.77822612 -99.17699442 131.34745943 -96.52246094 134.32324219 C-88.73030025 141.52047068 -80.00407533 145.64679388 -69.36230469 146.26074219 C-69.45511719 147.59105469 -69.45511719 147.59105469 -69.54980469 148.94824219 C-69.34089162 152.63903965 -68.54359873 154.32438483 -66.36230469 157.26074219 C-63.52146827 158.68116039 -61.50753191 158.57526491 -58.36230469 158.26074219 C-56.05954913 156.39364308 -54.68406598 154.90426478 -53.36230469 152.26074219 C-53.32208078 149.92775559 -53.31910222 147.59367553 -53.36230469 145.26074219 C-52.41355469 145.19886719 -51.46480469 145.13699219 -50.48730469 145.07324219 C-41.32576377 143.70639939 -33.45792129 137.99357315 -27.36230469 131.26074219 C-21.5622032 122.8443658 -20.56534179 115.39857899 -21.36230469 105.26074219 C-23.32458582 96.01945877 -29.37454308 88.61178429 -37.12402344 83.40527344 C-45.1281269 79.07728692 -53.43047916 77.42062871 -62.33203125 75.93115234 C-77.198592 73.42445487 -77.198592 73.42445487 -82.36230469 68.26074219 C-85.29361055 63.49737016 -85.8045739 59.7327116 -84.92480469 54.33496094 C-83.84768198 50.36307095 -81.93201096 48.19433765 -78.42480469 46.10839844 C-69.63195258 41.5665024 -59.96675251 40.78841305 -50.29589844 42.94433594 C-44.6528632 45.02062829 -41.46436896 47.96788423 -37.36230469 52.26074219 C-34.88659964 53.49074417 -34.88659964 53.49074417 -32.36230469 53.26074219 C-28.87595867 51.6391859 -27.51928274 50.49620927 -25.36230469 47.26074219 C-25.45955984 42.88426012 -26.69940239 40.02303489 -29.65136719 36.77246094 C-36.00799726 31.15598642 -44.7879882 26.26074219 -53.36230469 26.26074219 C-53.27980469 25.20886719 -53.19730469 24.15699219 -53.11230469 23.07324219 C-53.40338444 18.63427595 -54.07489565 17.20210816 -57.36230469 14.26074219 C-62.48577875 12.40757072 -64.60010754 13.49854504 -68.36230469 17.26074219 Z " fill="#000000" transform="translate(317.3623046875,61.7392578125)"/>
<path d="M0 0 C10.12601716 2.25022604 10.12601716 2.25022604 14.84936523 3.72973633 C15.91943817 4.06299927 16.98951111 4.39626221 18.0920105 4.73962402 C19.23598297 5.10011841 20.37995544 5.46061279 21.55859375 5.83203125 C22.78780548 6.21629272 24.01701721 6.6005542 25.28347778 6.99645996 C28.63693239 8.04510804 31.98884179 9.098616 35.34044266 10.15317154 C38.16007203 11.03968134 40.98060664 11.92329223 43.80111217 12.8070097 C66.79251354 20.0119178 89.75758856 27.30036974 112.70724487 34.63711548 C113.37886878 34.85181236 114.05049269 35.06650925 114.74246883 35.2877121 C116.07559031 35.71405528 117.40861773 36.14069268 118.74154758 36.56763458 C121.93963328 37.59103592 125.14002963 38.60508648 128.34498596 39.60690308 C134.06204807 41.39565279 139.72590049 43.23943874 145.33984375 45.33129883 C159.01103913 50.28351317 167.39384776 50.23271336 180.875 45.0625 C182.61339989 44.45355084 184.35439684 43.85197495 186.09765625 43.25708008 C189.92739623 41.94456732 193.7444882 40.60117354 197.55761719 39.24121094 C207.99841431 35.56124113 218.58737055 32.32230311 229.15215111 29.01980114 C233.66802256 27.60779868 238.17856485 26.17993049 242.68701172 24.74438477 C243.88937469 24.36240936 245.09173767 23.98043396 246.33053589 23.58688354 C248.60612326 22.86380213 250.88115282 22.13896225 253.1555481 21.41213989 C254.16253754 21.09332855 255.16952698 20.77451721 256.20703125 20.44604492 C257.0885083 20.16548752 257.96998535 19.88493011 258.87817383 19.59587097 C261 19 261 19 263 19 C263 38.47 263 57.94 263 78 C244.85680651 84.14222696 226.65934597 90.04288181 208.375 95.75 C207.36550293 96.06542755 206.35600586 96.3808551 205.31591797 96.70584106 C200.42320158 98.23342473 195.52814185 99.7524883 190.62792969 101.25585938 C186.88576158 102.40592857 183.16079312 103.59766807 179.44238281 104.82226562 C177.68296206 105.38677905 175.92352281 105.95123488 174.1640625 106.515625 C173.3839682 106.78227966 172.6038739 107.04893433 171.80014038 107.32366943 C161.47520502 110.5815165 152.46494359 107.50503769 142.4921875 104.23046875 C140.63326326 103.6342602 138.77433778 103.03805551 136.91536617 102.44199467 C134.93408814 101.8046726 132.95443555 101.16252305 130.97518921 100.5189209 C126.81592677 99.1667182 122.65227053 97.8284445 118.48754883 96.49316406 C117.78070859 96.26649992 117.07386835 96.03983578 116.34560871 95.80630302 C114.90155346 95.34324076 113.45748734 94.88021241 112.01341057 94.41721725 C109.80824355 93.70971832 107.60348862 93.0009478 105.39881897 92.29190063 C90.19938301 87.4062363 74.96416475 82.63673425 59.72251129 77.8847084 C57.07298595 77.05833658 54.42385538 76.23070364 51.77473068 75.40304852 C41.33725785 72.14252072 30.89911571 68.88472986 20.44384766 65.68164062 C19.23686722 65.31174011 18.02988678 64.9418396 16.78633118 64.56072998 C14.49419835 63.85919773 12.20156795 63.15928852 9.90837097 62.46124268 C8.89551529 62.1514447 7.88265961 61.84164673 6.83911133 61.52246094 C5.94928055 61.25141541 5.05944977 60.98036987 4.14265442 60.70111084 C2 60 2 60 0 59 C0 39.53 0 20.06 0 0 Z " fill="#000000" transform="translate(94,315)"/>
</svg>
