<svg xmlns="http://www.w3.org/2000/svg" xmlns:xlink="http://www.w3.org/1999/xlink" viewBox="0 0 14.73 16.44"><defs><style>.cls-1{fill:none;}.cls-2{clip-path:url(#clip-path);}.cls-3{fill:#fff;}.cls-4{fill:#000911;}.cls-5{fill:#003471;}</style><clipPath id="clip-path" transform="translate(-0.12 0)"><rect class="cls-1" width="15" height="14"/></clipPath></defs><title>Asset 16FEE ICON</title><g id="Layer_2" data-name="Layer 2"><g id="Layer_1-2" data-name="Layer 1"><g class="cls-2"><path class="cls-3" d="M14.36.5A1.72,1.72,0,0,0,13.17,0c-2.64,0-5.33,0-7.93,0H1.79a2,2,0,0,0-.42,0A1.53,1.53,0,0,0,.15,1.67V15.56a.73.73,0,0,0,.41.76.73.73,0,0,0,.85-.2l1.14-1,.55-.49a1.05,1.05,0,0,1,.71-.33,1.2,1.2,0,0,1,.65.23L7,16.21a.73.73,0,0,0,1,0l2.53-1.7a1,1,0,0,1,1.38.09l1.75,1.58a.67.67,0,0,0,.6.19.7.7,0,0,0,.59-.76v-7c0-.66,0-1.33,0-2,0-1.61,0-3.27,0-4.91A1.61,1.61,0,0,0,14.36.5ZM8.58.49h1.5V.82H9v.6h.92v.33H9v.67h1.08v.34H8.58Zm-1.8,0h1.5V.82H7.21v.6h.92v.33H7.21v.67H8.29v.34H6.78ZM5,.49H6.49V.82h-1v.65h.91v.34H5.46v.95H5ZM8,11.24a.85.85,0,0,1-.61.23H2.57A.85.85,0,0,1,2,11.24a.74.74,0,0,1-.21-.53A.77.77,0,0,1,2.57,10H7.41a.76.76,0,0,1,.83.75A.72.72,0,0,1,8,11.24ZM13.2,7.58a.73.73,0,0,1-.57.54,1,1,0,0,1-.26,0H2.61a.86.86,0,0,1-.72-.33.69.69,0,0,1-.11-.64.74.74,0,0,1,.74-.54h9.86a.79.79,0,0,1,.61.22A.73.73,0,0,1,13.2,7.58Zm0-3.4a.76.76,0,0,1-.7.63H2.61a1.08,1.08,0,0,1-.56-.16.68.68,0,0,1-.27-.77.69.69,0,0,1,.57-.55,1,1,0,0,1,.26,0h9.75a1,1,0,0,1,.38.06A.77.77,0,0,1,13.22,4.18Z" transform="translate(-0.12 0)"/><path class="cls-4" d="M7.49,16.42a1,1,0,0,1-.51-.2L4.45,14.51a1.17,1.17,0,0,0-.64-.23,1.11,1.11,0,0,0-.71.32l-.54.5c-.36.31-.76.67-1.15,1a.73.73,0,0,1-.85.2.74.74,0,0,1-.42-.77V1.67A1.54,1.54,0,0,1,1.37.06a2,2,0,0,1,.42,0H5.44C8,0,10.6,0,13.17,0a1.69,1.69,0,0,1,1.2.48,1.65,1.65,0,0,1,.47,1.19c0,1.62,0,3.27,0,4.86v9.06a.71.71,0,0,1-.59.77.69.69,0,0,1-.61-.19l-1.75-1.58a1,1,0,0,0-1.36-.1L8,16.22A1,1,0,0,1,7.49,16.42ZM3.81,14.26a1.2,1.2,0,0,1,.65.23L7,16.2a.73.73,0,0,0,1,0l2.53-1.7a1,1,0,0,1,1.38.1l1.75,1.57a.67.67,0,0,0,.6.19.69.69,0,0,0,.58-.75V6.55c0-1.59,0-3.24,0-4.86A1.64,1.64,0,0,0,14.36.51,1.7,1.7,0,0,0,13.17,0C10.6.06,8,.05,5.44.05H1.79a1.84,1.84,0,0,0-.41,0A1.52,1.52,0,0,0,.16,1.67V15.56a.7.7,0,0,0,.4.75.72.72,0,0,0,.84-.19l1.15-1,.54-.49A1.1,1.1,0,0,1,3.81,14.26Zm1-2.78H2.57A.86.86,0,0,1,2,11.24.77.77,0,0,1,2.57,10H7.41a.77.77,0,0,1,.84.76.71.71,0,0,1-.21.53H8a.83.83,0,0,1-.62.24ZM3.72,10H2.57A.75.75,0,0,0,2,11.23a.85.85,0,0,0,.61.23H7.42A.85.85,0,0,0,8,11.23H8a.69.69,0,0,0,.2-.52A.75.75,0,0,0,7.41,10H3.72ZM6.46,8.16H2.61a.89.89,0,0,1-.73-.33.76.76,0,0,1,.64-1.2h9.86a.82.82,0,0,1,.62.22.74.74,0,0,1,.2.75h0a.72.72,0,0,1-.57.54,1,1,0,0,1-.26,0ZM3.11,6.64H2.52a.72.72,0,0,0-.73.54.7.7,0,0,0,.1.63.91.91,0,0,0,.72.32h9.76a1,1,0,0,0,.26,0,.71.71,0,0,0,.56-.53h0a.73.73,0,0,0-.2-.72.8.8,0,0,0-.61-.22H3.11ZM5.34,4.83H2.61a1,1,0,0,1-.56-.16.69.69,0,0,1-.28-.78.71.71,0,0,1,.58-.56,1,1,0,0,1,.26,0h9.75a1.14,1.14,0,0,1,.39.06.77.77,0,0,1,.47.83h0a.76.76,0,0,1-.7.64H5.34ZM6.52,3.31H2.61a1,1,0,0,0-.26,0,.72.72,0,0,0-.57.55.67.67,0,0,0,.27.75,1.1,1.1,0,0,0,.56.16h9.91a.75.75,0,0,0,.69-.62.76.76,0,0,0-.47-.81,1.12,1.12,0,0,0-.38-.06Zm3.58-.54H8.58V.48h1.51V.83H9v.58h.92v.35H9v.65H10.1Zm-1.51,0h1.49V2.43H9V1.74h.92V1.43H9V.82h1.08V.5H8.59Zm-.29,0H6.78V.48H8.29V.83H7.22v.58h.92v.35H7.22v.65H8.3Zm-1.51,0H8.28V2.43H7.2V1.74h.92V1.43H7.2V.82H8.28V.5H6.79Zm-1.32,0H5V.48H6.5V.83h-1v.63h.91v.36H5.47ZM5,2.75h.41V1.8h.91V1.48H5.45V.82h1V.5H5Z" transform="translate(-0.12 0)"/><path class="cls-5" d="M7.49,16.43a1,1,0,0,1-.51-.2L4.45,14.52a1.19,1.19,0,0,0-.64-.23,1.08,1.08,0,0,0-.7.32l-.55.49-1.14,1a.75.75,0,0,1-.87.2.76.76,0,0,1-.42-.78V1.67A1.55,1.55,0,0,1,1.37.05a2,2,0,0,1,.42,0H5.44C8,0,10.6,0,13.17,0a1.72,1.72,0,0,1,1.2.48,1.68,1.68,0,0,1,.48,1.2c0,1.62,0,3.27,0,4.86v9.06a.71.71,0,0,1-.6.78.69.69,0,0,1-.61-.19l-1.75-1.58a1,1,0,0,0-1.36-.1L8,16.23A1,1,0,0,1,7.49,16.43ZM3.81,14.25a1.2,1.2,0,0,1,.65.23L7,16.19a.72.72,0,0,0,1,0l2.53-1.71a1,1,0,0,1,1.39.1l1.75,1.57a.65.65,0,0,0,.59.19.68.68,0,0,0,.57-.74V6.55c0-1.59,0-3.24,0-4.86A1.61,1.61,0,0,0,14.35.52,1.66,1.66,0,0,0,13.17.05C10.6.07,8,.06,5.44.06H1.79a1.84,1.84,0,0,0-.41,0A1.51,1.51,0,0,0,.17,1.67V5.84c0,3.18,0,6.48,0,9.72a.72.72,0,0,0,.41.74.71.71,0,0,0,.83-.19l1.14-1,.55-.49A1.08,1.08,0,0,1,3.81,14.25Zm1-2.76H2.57A.83.83,0,0,1,2,11.25a.71.71,0,0,1-.21-.54.77.77,0,0,1,.83-.77H7.41a.78.78,0,0,1,.85.77.75.75,0,0,1-.21.54h0a.87.87,0,0,1-.63.24ZM3.72,10H2.57a.75.75,0,0,0-.8.73.71.71,0,0,0,.2.51.83.83,0,0,0,.6.23H7.42a.81.81,0,0,0,.6-.23H8a.68.68,0,0,0,.21-.51A.75.75,0,0,0,7.41,10H3.72ZM6.46,8.17H2.61a.88.88,0,0,1-.73-.33.78.78,0,0,1,.64-1.22h9.86a.82.82,0,0,1,.62.22.74.74,0,0,1,.21.76h0a.72.72,0,0,1-.58.55,1,1,0,0,1-.26,0ZM3.11,6.65H2.52a.71.71,0,0,0-.72.53.68.68,0,0,0,.1.62.87.87,0,0,0,.71.32h9.76a1,1,0,0,0,.26,0,.7.7,0,0,0,.55-.52h0a.73.73,0,0,0-.2-.72.79.79,0,0,0-.6-.21H3.11ZM5.34,4.84H2.61A1.11,1.11,0,0,1,2,4.67a.7.7,0,0,1-.28-.79.72.72,0,0,1,.59-.57,1,1,0,0,1,.26,0h9.75a1.14,1.14,0,0,1,.39.06.78.78,0,0,1,.48.85.77.77,0,0,1-.71.64H5.34ZM6.52,3.32H2.61a1,1,0,0,0-.26,0,.69.69,0,0,0-.56.54.64.64,0,0,0,.27.74,1,1,0,0,0,.55.16h9.91a.73.73,0,0,0,.22-1.41,1.12,1.12,0,0,0-.38-.06Zm3.59-.54H8.57V.47H10.1V.84H9v.57H10v.36H9V2.4h1.08Zm-1.51,0h1.47v-.3H9V1.73h.91V1.44H9V.81h1.07V.51H8.6Zm-.3,0H6.77V.47H8.3V.84H7.23v.57h.92v.36H7.23V2.4H8.3Zm-1.5,0H8.27v-.3H7.2V1.73h.91V1.44H7.2V.81H8.27V.51H6.8Zm-1.33,0H5V.47h1.5V.84h-1v.61h.92v.38H5.47ZM5,2.74h.4v-1h.92v-.3H5.44V.81h1V.51H5Z" transform="translate(-0.12 0)"/><path class="cls-4" d="M7.49,16.44h0A.93.93,0,0,1,7,16.23l-2.53-1.7a1.14,1.14,0,0,0-.63-.23,1.08,1.08,0,0,0-.7.32l-.54.49-1.15,1a.73.73,0,0,1-.87.19.74.74,0,0,1-.43-.78c0-3.24,0-6.54,0-9.72V1.67A1.56,1.56,0,0,1,1.37,0a3,3,0,0,1,.42,0H5.46C8,0,10.6,0,13.17,0a1.74,1.74,0,0,1,1.21.48,1.73,1.73,0,0,1,.48,1.21c0,1.62,0,3.27,0,4.86v9.06a.72.72,0,0,1-.61.79.7.7,0,0,1-.62-.2l-1.75-1.57a1,1,0,0,0-1.34-.1L8,16.24a.92.92,0,0,1-.51.2ZM3.81,14.28a1.17,1.17,0,0,1,.64.23L7,16.22a.92.92,0,0,0,.51.2.93.93,0,0,0,.5-.2l2.53-1.71a1,1,0,0,1,1.36.1l1.75,1.58a.69.69,0,0,0,.61.19.71.71,0,0,0,.59-.77V6.55c0-1.59,0-3.24,0-4.86A1.65,1.65,0,0,0,14.37.5,1.69,1.69,0,0,0,13.17,0C10.6,0,8,0,5.46,0H1.79a2,2,0,0,0-.42,0A1.54,1.54,0,0,0,.14,1.67V15.56a.74.74,0,0,0,.42.77.73.73,0,0,0,.85-.2c.39-.36.79-.72,1.15-1l.54-.5A1.11,1.11,0,0,1,3.81,14.28ZM7.49,16.4a1,1,0,0,1-.5-.2L4.46,14.49a1.2,1.2,0,0,0-.65-.23,1.1,1.1,0,0,0-.72.33l-.54.49-1.15,1a.72.72,0,0,1-.84.19.7.7,0,0,1-.4-.75V1.67A1.52,1.52,0,0,1,1.38.08a1.84,1.84,0,0,1,.41,0H5.45c2.53,0,5.15,0,7.72,0a1.7,1.7,0,0,1,1.19.47,1.64,1.64,0,0,1,.46,1.18c0,1.62,0,3.27,0,4.86v9.06a.69.69,0,0,1-.58.75.68.68,0,0,1-.6-.19L11.89,14.6a1,1,0,0,0-1.38-.1L8,16.2A.89.89,0,0,1,7.49,16.4ZM3.81,14.24a1.19,1.19,0,0,1,.66.24L7,16.18a.71.71,0,0,0,1,0l2.53-1.71a1,1,0,0,1,1.4.1l1.75,1.58a.68.68,0,0,0,1.15-.55V6.55c0-1.59,0-3.24,0-4.86A1.62,1.62,0,0,0,14.35.53,1.68,1.68,0,0,0,13.17.06C10.6.08,8,.07,5.45.07H1.79a1.84,1.84,0,0,0-.41,0A1.52,1.52,0,0,0,.17,1.67V15.56a.69.69,0,0,0,1.22.54l1.14-1,.55-.5A1.12,1.12,0,0,1,3.81,14.24Zm1-2.74H2.57a.87.87,0,0,1-.63-.24.73.73,0,0,1-.21-.55.79.79,0,0,1,.84-.78H7.41a.8.8,0,0,1,.86.78.76.76,0,0,1-.22.55.85.85,0,0,1-.63.24ZM3.73,10H2.57A.77.77,0,0,0,2,11.24a.86.86,0,0,0,.62.24H7.42A.83.83,0,0,0,8,11.24a.71.71,0,0,0,.21-.53A.77.77,0,0,0,7.41,10H3.73Zm1.19,1.51H2.57A.85.85,0,0,1,2,11.23.75.75,0,0,1,2.57,10H7.41a.75.75,0,0,1,.82.74.69.69,0,0,1-.2.52.85.85,0,0,1-.61.23ZM3.72,10H2.57a.73.73,0,0,0-.79.72.66.66,0,0,0,.19.5.83.83,0,0,0,.6.23H7.42a.83.83,0,0,0,.6-.23.69.69,0,0,0,.2-.5A.74.74,0,0,0,7.41,10H3.72ZM6.46,8.18H2.61a.89.89,0,0,1-.74-.34.78.78,0,0,1,.65-1.23c.3,0,.62,0,.92,0h8.94a.81.81,0,0,1,.63.22.78.78,0,0,1-.38,1.32,1,1,0,0,1-.26,0ZM3.11,6.63H2.52a.76.76,0,0,0-.64,1.2.89.89,0,0,0,.73.33h9.76a1,1,0,0,0,.26,0,.72.72,0,0,0,.57-.54.74.74,0,0,0-.2-.75.82.82,0,0,0-.62-.22H3.11ZM6.58,8.14h-4a.91.91,0,0,1-.72-.32.7.7,0,0,1-.1-.63.72.72,0,0,1,.73-.54h9.86a.8.8,0,0,1,.61.22.73.73,0,0,1,.2.72.71.71,0,0,1-.56.53,1,1,0,0,1-.26,0ZM3.11,6.66H2.52a.72.72,0,0,0-.72.52.69.69,0,0,0,.11.61.85.85,0,0,0,.7.32h9.76a1,1,0,0,0,.26,0A.72.72,0,0,0,13,6.87a.79.79,0,0,0-.6-.21H3.11ZM5.34,4.85H2.61A1,1,0,0,1,2,4.67a.7.7,0,0,1-.29-.79.73.73,0,0,1,.6-.58,1,1,0,0,1,.26,0h9.75a1.48,1.48,0,0,1,.39.05.79.79,0,0,1,.49.86.78.78,0,0,1-.72.65H5.34Zm1.2-1.56H2.61a1,1,0,0,0-.26,0,.71.71,0,0,0-.58.56.69.69,0,0,0,.28.78,1,1,0,0,0,.56.16h9.91a.76.76,0,0,0,.7-.64.77.77,0,0,0-.47-.83,1.14,1.14,0,0,0-.39-.06ZM5.34,4.81H2.61a1.1,1.1,0,0,1-.56-.16.67.67,0,0,1-.27-.75.72.72,0,0,1,.57-.55,1,1,0,0,1,.26,0h9.75a1.12,1.12,0,0,1,.38.06.76.76,0,0,1,.47.81.75.75,0,0,1-.69.62H5.34ZM6.52,3.33H2.61a.9.9,0,0,0-.25,0,.67.67,0,0,0-.56.53.63.63,0,0,0,.26.73,1,1,0,0,0,.55.16h9.91a.72.72,0,0,0,.22-1.39,1.12,1.12,0,0,0-.38-.06Zm3.59-.54H8.56V.46h1.55V.85H9V1.4H10v.38H9v.61h1.07Zm-1.53,0H10.1V2.41H9V1.76h.92V1.41H9V.83h1.07V.48H8.58Zm-.27,0H6.76V.46H8.31V.85H7.24V1.4h.92v.38H7.24v.61H8.31Zm-1.53,0H8.3V2.41H7.22V1.76h.92V1.41H7.22V.83H8.29V.48H6.78Zm-1.3,0H5V.46H6.52V.85h-1v.59H6.4v.4H5.48ZM5,2.77h.45V1.82h.91V1.46H5.47V.83h1V.48H5Zm5.06,0H8.59V.5h1.49V.82H9v.61h.92v.31H9v.69h1.08Zm-1.47,0h1.45V2.45H9V1.73h.92V1.45H9V.8h1.07V.52H8.61Zm-.33,0H6.79V.5H8.28V.82H7.2v.61h.92v.31H7.2v.69H8.28Zm-1.47,0H8.26V2.45H7.19V1.73h.92V1.45H7.19V.8H8.26V.52H6.81Zm-1.36,0H5V.5H6.48V.82h-1v.66h.91V1.8H5.45Zm-.4,0h.38V1.78h.92V1.5H5.43V.8h1V.52H5.05Z" transform="translate(-0.12 0)"/></g></g></g></svg>