<svg xmlns="http://www.w3.org/2000/svg" viewBox="0 0 17.72 15.14"><defs><style>.cls-1{fill:#fff;}</style></defs><title>Asset 16fee</title><g id="Layer_2" data-name="Layer 2"><g id="Layer_1-2" data-name="Layer 1"><path class="cls-1" d="M0,8.06,4.13,6.75,5.3,6.38a.18.18,0,0,1,.24.06c.14.18.3.34.48.53H5.58c-.22,0-.34.11-.35.29s.13.31.36.31h6.53c.23,0,.36-.11.37-.3s-.13-.3-.37-.3h-.41c.19-.21.36-.41.54-.6,0,0,.12,0,.18,0L16.1,7.54,17.53,8l.19.07-.88.28-3.11,1c-.11,0-.15.08-.14.19s0,.3,0,.47l1-.31a1.37,1.37,0,0,1,0,.16c0,.58,0,1.16,0,1.74,0,.13,0,.18-.16.21l-.73.23a.15.15,0,0,0-.13.17v1.92a.73.73,0,0,0,.07.19l.23.3c.15.19.15.36,0,.48s-.31.07-.45-.12l-.13-.15c-.06.07-.11.14-.17.2a.29.29,0,1,1-.46-.36v0a1.17,1.17,0,0,0,.33-1c0-1.25,0-2.5,0-3.75a.21.21,0,0,0-.17-.24L8.48,8.25l-.1,0a.3.3,0,0,0-.38.2.28.28,0,0,0,.2.36L9,9l2.68.85.17.06-.88.28L9,10.83a.46.46,0,0,1-.26,0L.17,8.12Z"/><path class="cls-1" d="M8.85,7H7.22A.52.52,0,0,1,7,6.9a3.7,3.7,0,1,1,3.77,0A.5.5,0,0,1,10.5,7Zm.86-2.33a.57.57,0,0,1-.28.48A1.21,1.21,0,0,1,8,5a.3.3,0,0,0-.44,0,.29.29,0,0,0,0,.45,1.41,1.41,0,0,0,.82.46c.14,0,.21.06.21.22a.26.26,0,0,0,.29.25c.15,0,.27-.09.27-.25s.08-.23.23-.27a1,1,0,0,0,.26-.11,1.1,1.1,0,0,0,.67-1.11,1.19,1.19,0,0,0-.85-1.08,3.61,3.61,0,0,0-.57-.12,3.56,3.56,0,0,1-.56-.15.51.51,0,0,1,0-.93,1.1,1.1,0,0,1,1.33.14.3.3,0,0,0,.45,0A.31.31,0,0,0,10,2a1.38,1.38,0,0,0-.76-.43c-.09,0-.13-.06-.13-.17a.28.28,0,0,0-.29-.3.27.27,0,0,0-.29.31c0,.1-.05.13-.14.17A2.61,2.61,0,0,0,7.77,2a1,1,0,0,0-.23,1.29,1.17,1.17,0,0,0,.93.66c.25.05.51.08.76.15A.62.62,0,0,1,9.71,4.64Z"/><path class="cls-1" d="M12.42,10.37V12c0,.44,0,.44-.41.57l-2.95.92a.55.55,0,0,1-.4,0L3.29,11.8c-.14,0-.18-.11-.18-.26,0-.61,0-1.22,0-1.85l.2.05,5.36,1.69a.86.86,0,0,0,.39,0l3.18-1Z"/></g></g></svg>