<svg xmlns="http://www.w3.org/2000/svg" viewBox="0 0 14.84 14.86"><defs><style>.cls-1{fill:#fff;}</style></defs><title>Asset 30logout</title><g id="Layer_2" data-name="Layer 2"><g id="Layer_1-2" data-name="Layer 1"><path class="cls-1" d="M8.34,14.85h6.49V0H8.35V2.26h4.23V12.62H8.34Z"/><path d="M14.84,14.86H8.33V12.62h4.25V2.26H8.34V0h6.5Zm-6.49,0h6.48V0H8.36V2.25h4.23V12.63H8.35Z"/><path class="cls-1" d="M6.88,8.56l0,.06L4.07,11.46,5.59,13l5.58-5.6L5.6,1.82,4,3.42l2.9,2.89H0V8.56Z"/><path d="M5.59,13l-.23-.23-1.3-1.32.56-.56L6.9,8.61l0,0H0V6.3H6.89L4,3.42,5.6,1.81h0L11.18,7.4h0ZM4.08,11.46,5.59,13,11.16,7.4,5.6,1.83,4,3.42l2.91,2.9H0V8.55H6.88l0,.07h0Z"/><path class="cls-1" d="M14.83,0V14.85H8.34V12.62h4.24V2.26H8.35V0"/><polygon points="14.84 14.86 8.33 14.86 8.33 12.62 12.58 12.62 12.58 2.26 8.34 2.26 8.34 0.01 8.36 0.01 8.36 2.25 12.59 2.25 12.59 12.63 8.35 12.63 8.35 14.85 14.83 14.85 14.83 0.01 14.84 0.01 14.84 14.86"/><path class="cls-1" d="M6.88,8.56H0V6.31h6.9L4,3.42,5.6,1.82,11.17,7.4,5.59,13,4.07,11.46,6.91,8.62Z"/><path d="M5.59,13l-.23-.23-1.3-1.32.56-.56L6.9,8.61l0,0H0V6.3H6.89L4,3.42,5.6,1.81h0L11.18,7.4h0ZM4.08,11.46,5.59,13,11.16,7.4,5.6,1.83,4,3.42l2.91,2.9H0V8.55H6.88l0,.07h0Z"/></g></g></svg>