<svg xmlns="http://www.w3.org/2000/svg" viewBox="0 0 27.15 17.1"><defs><style>.cls-1{fill:#171717;}</style></defs><title>Asset 19parents black</title><g id="Layer_2" data-name="Layer 2"><g id="Layer_1-2" data-name="Layer 1"><path d="M22.66,3.5c0,.15,0,.3,0,.45s0,.35.18.46a.4.4,0,0,1,.12.31,2.23,2.23,0,0,1-.2.68,14.77,14.77,0,0,1-.84,1.37,3.53,3.53,0,0,1-.64.75,1.78,1.78,0,0,1-2.39,0,3.67,3.67,0,0,1-.57-.68c-.3-.43-.59-.88-.85-1.34a1.91,1.91,0,0,1-.22-.62.55.55,0,0,1,.27-.58.25.25,0,0,0,.09-.19c0-.36,0-.72,0-1.07a1.94,1.94,0,0,1,1.18-1.88,3,3,0,0,1,2.93.12,2,2,0,0,1,1,1.77V3.5Z"/><path d="M5.53,10.07c-.47.18-.89.37-1.34.5-.74.21-1.49.36-2.23.57A2.19,2.19,0,0,0,.27,13C.12,14.13.07,15.22,0,16.32a.72.72,0,0,0,.6.74,1.67,1.67,0,0,0,.39,0H14.67a.77.77,0,0,0,.76-.85c-.06-1-.11-2-.22-3a2.32,2.32,0,0,0-1.4-2A5.85,5.85,0,0,0,13,11a10.48,10.48,0,0,1-3.05-1l-1.1,3.57c-.16-.57-.3-1.07-.46-1.57-.1-.33-.18-.61.14-.92s.09-.71-.34-.74a4,4,0,0,0-.85,0A.41.41,0,0,0,7,11a.9.9,0,0,0,.21.27.33.33,0,0,1,.09.4,1.67,1.67,0,0,0-.08.3l-.45,1.51h0ZM22.71,7.15l.05,0c.21,0,.42,0,.63,0A.3.3,0,0,0,23.74,7a5.77,5.77,0,0,0-.94-5.76A2.78,2.78,0,0,0,20.29,0a3.49,3.49,0,0,1-.56,0,2.93,2.93,0,0,0-1.84.63,4.2,4.2,0,0,0-1.11,1.3A6.36,6.36,0,0,0,16,5.54,3.28,3.28,0,0,0,16.4,7c.05.09.14.2.22.2.39,0,.79,0,1.21,0A5.15,5.15,0,0,1,19,1.59a4,4,0,0,0,1.7,2,6.37,6.37,0,0,1,.75.53c.33.29.64.6,1,.93,0-.47-.32-.75-.55-1.1C22.84,4.42,23.07,5.3,22.71,7.15ZM11,3.55h0V2.94A2.49,2.49,0,0,0,9.78.66,3.83,3.83,0,0,0,6,.51a2.48,2.48,0,0,0-1.52,2.4c0,.46,0,.92,0,1.38a.33.33,0,0,1-.12.25.7.7,0,0,0-.35.75,2.59,2.59,0,0,0,.28.78c.34.59.71,1.17,1.09,1.73a5.09,5.09,0,0,0,.74.86,2.3,2.3,0,0,0,3.07.05,5.78,5.78,0,0,0,.82-1c.38-.57.75-1.16,1.08-1.77a2.56,2.56,0,0,0,.24-.87.47.47,0,0,0-.15-.4C11,4.57,11,4.36,11,4.13Zm9.06,8.3c.25-.19.48-.39.73-.57a.23.23,0,0,0,.1-.31c-.13-.41-.23-.83-.36-1.24a.52.52,0,0,1,.11-.64.47.47,0,0,0,.09-.43.51.51,0,0,0-.36-.23,2.28,2.28,0,0,0-.69,0,.36.36,0,0,0-.26.6.7.7,0,0,0,.13.17.31.31,0,0,1,.09.37c-.14.47-.28.94-.41,1.42a.31.31,0,0,0,.08.26C19.56,11.46,19.82,11.65,20.08,11.85Z"/><path d="M27.15,14.92H16.6a4.48,4.48,0,0,0,0-.64,15.14,15.14,0,0,0-.27-1.91,3.37,3.37,0,0,0-1.77-2.17l-.2-.12a13.75,13.75,0,0,1,3.34-1.57,10.52,10.52,0,0,0-1.36,2c.33,0,.63,0,.93,0a.63.63,0,0,1,.35.13l2.46,2.13.18-.15c.76-.65,1.51-1.31,2.27-2a.7.7,0,0,1,.42-.16c.28,0,.56,0,.91,0-.23-.38-.43-.73-.65-1s-.49-.63-.76-1a.85.85,0,0,1,.22.06l2.21.94a3.37,3.37,0,0,1,2.07,3.16c0,.67.14,1.33.21,2Z"/><path d="M5.53,10.07,6.7,13.48h0L7.2,12a1.67,1.67,0,0,1,.08-.3.33.33,0,0,0-.09-.4A.9.9,0,0,1,7,11a.41.41,0,0,1,.33-.64,4,4,0,0,1,.85,0c.43,0,.64.45.34.74s-.24.59-.14.92c.16.5.3,1,.46,1.57L9.92,10A10.48,10.48,0,0,0,13,11a5.85,5.85,0,0,1,.84.26,2.32,2.32,0,0,1,1.4,2c.11,1,.16,2,.22,3a.77.77,0,0,1-.76.85H1a1.67,1.67,0,0,1-.39,0,.72.72,0,0,1-.6-.74c.07-1.1.12-2.19.27-3.28A2.19,2.19,0,0,1,2,11.14c.74-.21,1.49-.36,2.23-.57C4.64,10.44,5.06,10.25,5.53,10.07Z"/><path class="cls-1" d="M22.71,7.15c.36-1.85.13-2.73-.84-3.2.23.35.55.63.55,1.1-.35-.33-.66-.64-1-.93a6.37,6.37,0,0,0-.75-.53,4,4,0,0,1-1.7-2A5.15,5.15,0,0,0,17.83,7.2c-.42,0-.82,0-1.21,0-.08,0-.17-.11-.22-.2A3.28,3.28,0,0,1,16,5.54a6.36,6.36,0,0,1,.75-3.6A4.2,4.2,0,0,1,17.89.64,2.93,2.93,0,0,1,19.73,0a3.49,3.49,0,0,0,.56,0A2.78,2.78,0,0,1,22.8,1.19,5.77,5.77,0,0,1,23.74,7a.3.3,0,0,1-.35.23c-.21,0-.42,0-.63,0Z"/><path d="M20.08,11.85c-.26-.2-.52-.39-.75-.6a.31.31,0,0,1-.08-.26c.13-.48.27-1,.41-1.42a.31.31,0,0,0-.09-.37A.7.7,0,0,1,19.44,9a.36.36,0,0,1,.26-.6,2.28,2.28,0,0,1,.69,0,.51.51,0,0,1,.36.23.47.47,0,0,1-.09.43.52.52,0,0,0-.11.64c.13.41.23.83.36,1.24a.23.23,0,0,1-.1.31C20.56,11.46,20.33,11.66,20.08,11.85Z"/><path class="cls-1" d="M11,3.57c0,.19,0,.39,0,.58a.54.54,0,0,0,.23.6c.21.14.19.42.14.64a2.73,2.73,0,0,1-.24.64c-.35.59-.7,1.19-1.08,1.76a5.4,5.4,0,0,1-.83,1,2.3,2.3,0,0,1-3,0,4.84,4.84,0,0,1-.7-.8c-.4-.6-.79-1.21-1.16-1.83a2.3,2.3,0,0,1-.26-.72.72.72,0,0,1,.35-.79.33.33,0,0,0,.11-.25c0-.45,0-.9,0-1.35A2.52,2.52,0,0,1,6.08.52,3.87,3.87,0,0,1,9.77.69,2.5,2.5,0,0,1,11,3v.58ZM5.26,4.92H4.93c-.35,0-.5.17-.4.5a1.89,1.89,0,0,0,.2.46c.35.56.69,1.13,1.07,1.68a3.79,3.79,0,0,0,.66.78,2.38,2.38,0,0,0,.88.45,1.88,1.88,0,0,0,2.08-.88c.49-.7.93-1.44,1.38-2.17a1.47,1.47,0,0,0,.13-.37c.09-.3,0-.39-.3-.37h-.41l.3-1.2-.32,0a5.64,5.64,0,0,1-3.6-1.3.75.75,0,0,0-.38-.15A1.31,1.31,0,0,0,5.06,3.66C5.13,4.07,5.19,4.48,5.26,4.92Z"/></g></g></svg>