<svg xmlns="http://www.w3.org/2000/svg" viewBox="0 0 16.41 12.14"><defs><style>.cls-1{fill:#fff;}</style></defs><title>Asset 19Parents</title><g id="Layer_2" data-name="Layer 2"><g id="Layer_1-2" data-name="Layer 1"><path class="cls-1" d="M7.65,12.12h8.74v-.2c0-.81-.06-1.62-.08-2.43a1.49,1.49,0,0,0-.75-1.3A3.37,3.37,0,0,0,15.24,8a6.87,6.87,0,0,0-1.37-.58L13.2,8.67c-.08.16-.14.17-.28.06s-.52-.37-.77-.57a.19.19,0,0,0-.29,0l-.71.53c-.21.15-.24.14-.36-.08-.22-.4-.43-.8-.64-1.2l-.12,0c-.54.25-1.09.49-1.62.77a1.28,1.28,0,0,0-.7,1.09,11.72,11.72,0,0,0,0,1.19C7.65,11,7.65,11.57,7.65,12.12ZM0,12.12H7.33a.53.53,0,0,0,0-.12c0-.75,0-1.5.08-2.24a6,6,0,0,1,0-.61,1.82,1.82,0,0,1,.54-1l-1.59-.7s-.12,0-.15,0a2.53,2.53,0,0,1-3.71,0,.16.16,0,0,0-.2,0,8.08,8.08,0,0,0-1.54.74,1.44,1.44,0,0,0-.68,1,4.6,4.6,0,0,0-.05.64C.07,10.58,0,11.34,0,12.12Zm7.32-4.6s0-.07,0-.11c0-1.28,0-2.55,0-3.83a3.81,3.81,0,0,0-.65-2.2A2.59,2.59,0,0,0,2.49.94a3.76,3.76,0,0,0-1,2.68V7.53l.11,0L3.14,7c.28-.09.23,0,.24-.31,0-.13,0-.26,0-.38A.22.22,0,0,0,3.26,6a1.84,1.84,0,0,1-.34-.27A3,3,0,0,1,2.07,3.2,1.49,1.49,0,0,1,3.24,1.83a4.45,4.45,0,0,1,2.4,0A1.48,1.48,0,0,1,6.7,3a2,2,0,0,1,.07.42A2.91,2.91,0,0,1,5.65,6a.38.38,0,0,0-.2.41v.07c0,.14,0,.32,0,.42s.26.1.39.14h0ZM4.46,1.92C4.1,2,3.78,2,3.47,2a1.26,1.26,0,0,0-1.11,1,2.78,2.78,0,0,0,.47,2.18,1.85,1.85,0,0,0,3,.17,2.72,2.72,0,0,0,.62-2.29,1.19,1.19,0,0,0-1-1.05C5.15,2,4.79,2,4.46,1.92ZM13.8,4l0,0a2,2,0,0,0-.7-1.55.18.18,0,0,0-.25,0,1.53,1.53,0,0,1-.37.16,2.17,2.17,0,0,1-1.21,0,.94.94,0,0,0-1.07.45,2.24,2.24,0,0,0-.16.5,5.36,5.36,0,0,1-.05.7.73.73,0,0,0,.07.55,3.14,3.14,0,0,0,.43.7,1.81,1.81,0,0,0,1.66.73A2.23,2.23,0,0,0,14,4.45a.12.12,0,0,0,0-.1C13.91,4.23,13.85,4.1,13.8,4ZM9.51,2.78c0,.37.07.81.11,1.25,0,0,.07.1.1.14A.77.77,0,0,0,9.79,4c0-.21,0-.42,0-.62a1.28,1.28,0,0,1,1-1.16,1.45,1.45,0,0,1,.77,0,1.58,1.58,0,0,0,1.24-.15A.42.42,0,0,0,13,2a2.16,2.16,0,0,0,.24-1,.87.87,0,0,0-.06-.4A1,1,0,0,0,12.4,0a3.43,3.43,0,0,0-1.64.27A1.83,1.83,0,0,0,9.58,1.75,9.83,9.83,0,0,0,9.51,2.78ZM3.64,6.24v.6c0,.26,0,.26-.25.33l-.62.17A2.21,2.21,0,0,0,6,7.33l-.52-.14c-.34-.09-.34-.09-.34-.43V6.24A2.05,2.05,0,0,1,3.64,6.24ZM13.46.6a2.66,2.66,0,0,1-.22,1.45s0,.1.07.14A2.25,2.25,0,0,1,14.11,4a.52.52,0,0,0,.06.16c.05,0,.11-.08.13-.13A4.24,4.24,0,0,0,14.48,2,2.12,2.12,0,0,0,13.89.74.47.47,0,0,0,13.46.6ZM11.07,6.17a.66.66,0,0,0,.17.63c.17.17.32.36.48.55l.29.34c.27-.32.52-.63.79-.91A.67.67,0,0,0,13,6.16,2,2,0,0,1,11.07,6.17Zm.75,1.7-.91-1-.53.46L11,8.47Zm1.29-1-.91,1,.81.6.58-1.1a.15.15,0,0,0,0-.14C13.42,7.09,13.27,7,13.11,6.82Z"/><path d="M7.34,12.14H0v0c0-.21,0-.43,0-.64,0-.57,0-1.11.06-1.66v-.1a3.29,3.29,0,0,1,.05-.54,1.43,1.43,0,0,1,.68-1,7.15,7.15,0,0,1,1.55-.74.17.17,0,0,1,.21,0,2.61,2.61,0,0,0,1.83.81h0a2.63,2.63,0,0,0,1.85-.81s.12-.07.16,0L7.7,8,8,8.16v0a1.83,1.83,0,0,0-.54,1c0,.2,0,.41-.05.61,0,.5,0,1,0,1.51,0,.24,0,.49,0,.73,0,0,0,.05,0,.08v.06ZM0,12.11H7.32v0a.25.25,0,0,0,0-.08c0-.24,0-.49,0-.73,0-.5,0-1,.05-1.51,0-.2,0-.41,0-.61a1.91,1.91,0,0,1,.53-1L7.68,8,6.41,7.48a.18.18,0,0,0-.13,0,2.65,2.65,0,0,1-1.88.82,2.65,2.65,0,0,1-1.85-.82.14.14,0,0,0-.18,0,7.79,7.79,0,0,0-1.54.73,1.4,1.4,0,0,0-.67,1,3.17,3.17,0,0,0,0,.53v.1c0,.56,0,1.09-.06,1.66C0,11.69,0,11.9,0,12.11Zm16.38,0H7.64V10.51c0-.36,0-.78.06-1.19a1.31,1.31,0,0,1,.7-1.11c.38-.2.77-.38,1.15-.55L10,7.44l.08,0h.06l.19.37.45.84c.06.11.09.17.14.18s.1,0,.2-.1l.2-.15.51-.38c.11-.09.19-.11.31,0s.4.31.61.45l.16.12a.27.27,0,0,0,.15.07s.07,0,.11-.13l.47-.88.2-.37h0A6.64,6.64,0,0,1,15.24,8l.33.2a1.5,1.5,0,0,1,.75,1.31l.06,1.62,0,.81v.2Zm-8.74,0h8.71v-.19l0-.81c0-.53,0-1.08-.06-1.62a1.45,1.45,0,0,0-.73-1.29L15.23,8a7,7,0,0,0-1.35-.57l-.19.35c-.16.29-.32.59-.47.89-.05.08-.09.12-.14.13s-.09,0-.17-.06l-.16-.12-.61-.46c-.11-.09-.17-.07-.27,0l-.51.38-.21.15c-.1.08-.16.12-.22.1s-.09-.07-.16-.19l-.63-1.18h0l-.07,0-.48.22c-.38.17-.77.35-1.15.55a1.31,1.31,0,0,0-.69,1.08c0,.41,0,.83,0,1.19s0,.73,0,1.12ZM11,8.49l-.65-1.21.55-.48.93,1.07Zm-.61-1.2L11,8.45l.78-.58-.89-1ZM13,8.49l-.83-.62.93-1.07h0l.13.11.32.3a.16.16,0,0,1,0,.16l-.44.85L13,8.48Zm-.79-.62.78.58.13-.24.45-.84a.15.15,0,0,0,0-.13l-.32-.3-.12-.1Zm-7.81.2a2.2,2.2,0,0,1-1.65-.72v0h0L3,7.27l.42-.12c.24-.06.24-.06.24-.31V6.22h0a2,2,0,0,0,1.53,0h0v.54c0,.33,0,.33.32.42l.36.1.19,0h0a2.07,2.07,0,0,1-1.58.73ZM2.8,7.35A2.13,2.13,0,0,0,4.47,8,2,2,0,0,0,6,7.34l-.15,0-.36-.1c-.34-.09-.34-.09-.34-.44v-.5a2,2,0,0,1-1.51,0v.58c0,.26,0,.27-.27.34L3,7.3ZM12,7.71l-.11-.12-.19-.23-.15-.18a2.91,2.91,0,0,0-.33-.37.64.64,0,0,1-.17-.64v0h0a2,2,0,0,0,1.86,0h0v0a.68.68,0,0,1-.15.63c-.19.19-.36.4-.55.62L12,7.7Zm-.93-1.52a.62.62,0,0,0,.17.6,3.8,3.8,0,0,1,.33.37l.15.18.2.23.08.09.23-.27c.19-.22.36-.43.55-.62a.64.64,0,0,0,.15-.59A2.07,2.07,0,0,1,11.08,6.19ZM1.48,7.55V3.62a3.79,3.79,0,0,1,1-2.69A2.62,2.62,0,0,1,4.62.06,2.84,2.84,0,0,1,6.7,1.37a4.06,4.06,0,0,1,.65,2.21V7.41a.22.22,0,0,1,0,.08v0L5.87,7h0L5.73,7a.48.48,0,0,1-.27-.11.46.46,0,0,1,0-.29V6.42s0,0,0,0A.43.43,0,0,1,5.64,6,2.84,2.84,0,0,0,6.75,3.38,1.76,1.76,0,0,0,6.69,3a1.42,1.42,0,0,0-1.05-1.1,4.41,4.41,0,0,0-2.39,0A1.48,1.48,0,0,0,2.09,3.21a3,3,0,0,0,.84,2.54A1.5,1.5,0,0,0,3.26,6a.23.23,0,0,1,.13.26v.49c0,.14,0,.15-.12.18L3.15,7l-1.1.37-.45.16-.06,0ZM4.41.08A2.62,2.62,0,0,0,2.5,1a3.75,3.75,0,0,0-1,2.67V7.51h0l.07,0L2,7.32,3.14,7l.12,0c.1,0,.1,0,.1-.15V6.5a1.69,1.69,0,0,1,0-.23A.22.22,0,0,0,3.25,6a2,2,0,0,1-.34-.27A3,3,0,0,1,2.06,3.2,1.52,1.52,0,0,1,3.24,1.81a4.44,4.44,0,0,1,2.4,0A1.5,1.5,0,0,1,6.72,3a1.64,1.64,0,0,1,.06.42A2.9,2.9,0,0,1,5.66,6a.4.4,0,0,0-.2.4v.21a.39.39,0,0,0,0,.27c0,.06.14.08.24.1l.14,0h0l1.43.5V3.58a3.89,3.89,0,0,0-.65-2.19,2.75,2.75,0,0,0-2-1.3Zm0,6.07H4.33a2,2,0,0,1-1.51-.89,2.76,2.76,0,0,1-.47-2.19A1.27,1.27,0,0,1,3.47,2a6.37,6.37,0,0,1,.65-.09l.34,0h0L4.77,2a6.69,6.69,0,0,1,.74.12,1.23,1.23,0,0,1,1,1.06,2.76,2.76,0,0,1-.63,2.31A1.9,1.9,0,0,1,4.41,6.15Zm0-4.22L4.13,2a6.57,6.57,0,0,0-.66.09,1.23,1.23,0,0,0-1.09,1,2.76,2.76,0,0,0,.46,2.17,2,2,0,0,0,1.49.87,1.88,1.88,0,0,0,1.51-.7,2.75,2.75,0,0,0,.62-2.28,1.18,1.18,0,0,0-1-1C5.26,2,5,2,4.76,2ZM12,6.14a1.86,1.86,0,0,1-1.46-.74,3.93,3.93,0,0,1-.42-.7A.72.72,0,0,1,10,4.14a1.75,1.75,0,0,0,0-.4,1.51,1.51,0,0,1,0-.3,1.63,1.63,0,0,1,.16-.5.93.93,0,0,1,1.09-.46,2.15,2.15,0,0,0,1.19,0,1.67,1.67,0,0,0,.38-.15.18.18,0,0,1,.26,0A2,2,0,0,1,13.86,4h0l0,0,0,.09c0,.09.07.19.11.28a.22.22,0,0,1,0,.11A2.22,2.22,0,0,1,12.2,6.13Zm-.92-3.67a.88.88,0,0,0-.79.48,1.41,1.41,0,0,0-.16.49,1.51,1.51,0,0,0,0,.3,1.39,1.39,0,0,1,0,.41.77.77,0,0,0,.07.54,3.86,3.86,0,0,0,.43.69,1.79,1.79,0,0,0,1.65.72A2.19,2.19,0,0,0,14,4.45a.37.37,0,0,0,0-.09c0-.09-.07-.19-.11-.28l0-.1h0l.06,0a2,2,0,0,0-.7-1.53.17.17,0,0,0-.23,0,2,2,0,0,1-.38.16,2.22,2.22,0,0,1-1.21,0A.78.78,0,0,0,11.06,2.47ZM9.72,4.2v0l0,0A.17.17,0,0,1,9.61,4c0-.34-.06-.69-.09-1,0-.09,0-.17,0-.25h0c0-.12,0-.24,0-.36s0-.45.05-.67A1.86,1.86,0,0,1,10.75.28,3.55,3.55,0,0,1,12.41,0a.94.94,0,0,1,.76.51.78.78,0,0,1,.06.38v0A2.07,2.07,0,0,1,13,2a.47.47,0,0,1-.18.19,1.61,1.61,0,0,1-1.26.15,1.46,1.46,0,0,0-.75,0,1.28,1.28,0,0,0-1,1.15c0,.12,0,.25,0,.37A2.09,2.09,0,0,1,9.8,4a.28.28,0,0,1,0,.12l0,0ZM9.53,2.78a2.29,2.29,0,0,0,0,.25c0,.31,0,.66.09,1,0,0,0,.06,0,.09l0,0v0a.3.3,0,0,0,0-.11c0-.08,0-.17,0-.25a2.53,2.53,0,0,1,0-.38,1.28,1.28,0,0,1,1-1.17,1.53,1.53,0,0,1,.77,0,1.54,1.54,0,0,0,1.23-.14A.49.49,0,0,0,13,1.94a2.06,2.06,0,0,0,.23-1v0a.74.74,0,0,0-.06-.37A.92.92,0,0,0,12.4,0,3.61,3.61,0,0,0,10.76.3,1.84,1.84,0,0,0,9.59,1.75a6.57,6.57,0,0,0-.05.66C9.54,2.53,9.53,2.65,9.53,2.78ZM14.17,4.2v0s0,0,0,0a.28.28,0,0,1,0-.12,2.26,2.26,0,0,0-.8-1.81s-.09-.12-.08-.16A2.6,2.6,0,0,0,13.44.6h0a.5.5,0,0,1,.45.15A2.05,2.05,0,0,1,14.5,2,4.34,4.34,0,0,1,14.32,4a.43.43,0,0,1-.09.1l-.05,0ZM13.47.61a2.59,2.59,0,0,1-.22,1.44s0,.09.07.12A2.3,2.3,0,0,1,14.13,4a.26.26,0,0,0,0,.11l0,0,0,0s.07-.06.08-.09a4.26,4.26,0,0,0,.18-2A2.07,2.07,0,0,0,13.88.75.46.46,0,0,0,13.47.61Z"/><path class="cls-1" d="M7.65,12.12c0-.55,0-1.08,0-1.61a11.72,11.72,0,0,1,0-1.19,1.28,1.28,0,0,1,.7-1.09C8.94,8,9.49,7.71,10,7.46l.12,0c.21.4.42.8.64,1.2.12.22.15.23.36.08l.71-.53a.19.19,0,0,1,.29,0c.25.2.51.39.77.57s.2.1.28-.06l.67-1.25A6.87,6.87,0,0,1,15.24,8a3.37,3.37,0,0,1,.32.19,1.49,1.49,0,0,1,.75,1.3c0,.81.05,1.62.08,2.43v.2Z"/><path d="M16.41,12.13H7.64V10.51c0-.36,0-.78.06-1.19a1.31,1.31,0,0,1,.7-1.11c.38-.2.77-.38,1.15-.55L10,7.44l.08,0h.06l.19.37.45.84c.06.11.09.17.14.18s.1,0,.2-.1l.2-.15.51-.38c.11-.09.19-.11.31,0s.4.31.61.45l.16.12a.27.27,0,0,0,.15.07s.07,0,.11-.13l.47-.88.2-.37h0A6.64,6.64,0,0,1,15.24,8l.33.2a1.5,1.5,0,0,1,.75,1.31l.06,1.62,0,.81v.2Zm-8.74,0h8.71v-.19l0-.81c0-.53,0-1.08-.06-1.62a1.45,1.45,0,0,0-.73-1.29L15.23,8a7,7,0,0,0-1.35-.57l-.19.35c-.16.29-.32.59-.47.89-.05.08-.09.12-.14.13s-.09,0-.17-.06l-.16-.12-.61-.46c-.11-.09-.17-.07-.27,0l-.51.38-.21.15c-.1.08-.16.12-.22.1s-.09-.07-.16-.19l-.63-1.18h0l-.07,0-.48.22c-.38.17-.77.35-1.15.55a1.31,1.31,0,0,0-.69,1.08c0,.41,0,.83,0,1.19s0,.73,0,1.12Z"/><path class="cls-1" d="M0,12.12c0-.78.06-1.54.08-2.3a4.6,4.6,0,0,1,.05-.64,1.44,1.44,0,0,1,.68-1,8.08,8.08,0,0,1,1.54-.74.16.16,0,0,1,.2,0,2.53,2.53,0,0,0,3.71,0s.11-.07.15,0L8,8.17a1.82,1.82,0,0,0-.54,1,6,6,0,0,0,0,.61c0,.74,0,1.49-.08,2.24a.53.53,0,0,1,0,.12Z"/><path d="M7.34,12.14H0v0c0-.21,0-.43,0-.64,0-.57,0-1.11.06-1.66v-.1a3.29,3.29,0,0,1,.05-.54,1.43,1.43,0,0,1,.68-1,7.15,7.15,0,0,1,1.55-.74.17.17,0,0,1,.21,0,2.61,2.61,0,0,0,1.83.81h0a2.63,2.63,0,0,0,1.85-.81s.12-.07.16,0L7.7,8,8,8.16v0a1.83,1.83,0,0,0-.54,1c0,.2,0,.41-.05.61,0,.5,0,1,0,1.51,0,.24,0,.49,0,.73,0,0,0,.05,0,.08v.06ZM0,12.11H7.32v0a.25.25,0,0,0,0-.08c0-.24,0-.49,0-.73,0-.5,0-1,.05-1.51,0-.2,0-.41,0-.61a1.91,1.91,0,0,1,.53-1L7.68,8,6.41,7.48a.18.18,0,0,0-.13,0,2.65,2.65,0,0,1-1.88.82,2.65,2.65,0,0,1-1.85-.82.14.14,0,0,0-.18,0,7.79,7.79,0,0,0-1.54.73,1.4,1.4,0,0,0-.67,1,3.17,3.17,0,0,0,0,.53v.1c0,.56,0,1.09-.06,1.66C0,11.69,0,11.9,0,12.11Z"/><path class="cls-1" d="M7.33,7.52,5.88,7h0c-.13,0-.32,0-.39-.14s0-.28,0-.42V6.38A.38.38,0,0,1,5.65,6,2.91,2.91,0,0,0,6.77,3.38,2,2,0,0,0,6.7,3,1.48,1.48,0,0,0,5.64,1.84a4.45,4.45,0,0,0-2.4,0A1.49,1.49,0,0,0,2.07,3.2a3,3,0,0,0,.85,2.56A1.84,1.84,0,0,0,3.26,6a.22.22,0,0,1,.12.24c0,.12,0,.25,0,.38,0,.3,0,.22-.24.31L1.6,7.49l-.11,0V3.62a3.76,3.76,0,0,1,1-2.68,2.59,2.59,0,0,1,4.19.44,3.81,3.81,0,0,1,.65,2.2c0,1.28,0,2.55,0,3.83C7.34,7.45,7.33,7.48,7.33,7.52Z"/><path d="M1.48,7.55V3.62a3.79,3.79,0,0,1,1-2.69A2.62,2.62,0,0,1,4.62.06,2.84,2.84,0,0,1,6.7,1.37a4.06,4.06,0,0,1,.65,2.21V7.41a.22.22,0,0,1,0,.08v0L5.87,7h0L5.73,7a.48.48,0,0,1-.27-.11.46.46,0,0,1,0-.29V6.42s0,0,0,0A.43.43,0,0,1,5.64,6,2.84,2.84,0,0,0,6.75,3.38,1.76,1.76,0,0,0,6.69,3a1.42,1.42,0,0,0-1.05-1.1,4.41,4.41,0,0,0-2.39,0A1.48,1.48,0,0,0,2.09,3.21a3,3,0,0,0,.84,2.54A1.5,1.5,0,0,0,3.26,6a.23.23,0,0,1,.13.26v.49c0,.14,0,.15-.12.18L3.15,7l-1.1.37-.45.16-.06,0ZM4.41.08A2.62,2.62,0,0,0,2.5,1a3.75,3.75,0,0,0-1,2.67V7.51h0l.07,0L2,7.32,3.14,7l.12,0c.1,0,.1,0,.1-.15V6.5a1.69,1.69,0,0,1,0-.23A.22.22,0,0,0,3.25,6a2,2,0,0,1-.34-.27A3,3,0,0,1,2.06,3.2,1.52,1.52,0,0,1,3.24,1.81a4.44,4.44,0,0,1,2.4,0A1.5,1.5,0,0,1,6.72,3a1.64,1.64,0,0,1,.06.42A2.9,2.9,0,0,1,5.66,6a.4.4,0,0,0-.2.4v.21a.39.39,0,0,0,0,.27c0,.06.14.08.24.1l.14,0h0l1.43.5V3.58a3.89,3.89,0,0,0-.65-2.19,2.75,2.75,0,0,0-2-1.3Z"/><path class="cls-1" d="M4.46,1.92c.33.05.69.08,1,.17a1.19,1.19,0,0,1,1,1.05,2.72,2.72,0,0,1-.62,2.29,1.85,1.85,0,0,1-3-.17,2.78,2.78,0,0,1-.47-2.18A1.26,1.26,0,0,1,3.47,2C3.78,2,4.1,2,4.46,1.92Z"/><path d="M4.41,6.15H4.33a2,2,0,0,1-1.51-.89,2.76,2.76,0,0,1-.47-2.19A1.27,1.27,0,0,1,3.47,2a6.37,6.37,0,0,1,.65-.09l.34,0h0L4.77,2a6.69,6.69,0,0,1,.74.12,1.23,1.23,0,0,1,1,1.06,2.76,2.76,0,0,1-.63,2.31A1.9,1.9,0,0,1,4.41,6.15Zm0-4.22L4.13,2a6.57,6.57,0,0,0-.66.09,1.23,1.23,0,0,0-1.09,1,2.76,2.76,0,0,0,.46,2.17,2,2,0,0,0,1.49.87,1.88,1.88,0,0,0,1.51-.7,2.75,2.75,0,0,0,.62-2.28,1.18,1.18,0,0,0-1-1C5.26,2,5,2,4.76,2Z"/><path class="cls-1" d="M13.8,4c0,.13.11.26.15.38a.12.12,0,0,1,0,.1A2.23,2.23,0,0,1,12.2,6.12a1.81,1.81,0,0,1-1.66-.73,3.14,3.14,0,0,1-.43-.7A.73.73,0,0,1,10,4.14a5.36,5.36,0,0,0,.05-.7,2.24,2.24,0,0,1,.16-.5.94.94,0,0,1,1.07-.45,2.17,2.17,0,0,0,1.21,0,1.53,1.53,0,0,0,.37-.16.18.18,0,0,1,.25,0A2,2,0,0,1,13.85,4Z"/><path d="M12,6.14a1.86,1.86,0,0,1-1.46-.74,3.93,3.93,0,0,1-.42-.7A.72.72,0,0,1,10,4.14a1.75,1.75,0,0,0,0-.4,1.51,1.51,0,0,1,0-.3,1.63,1.63,0,0,1,.16-.5.93.93,0,0,1,1.09-.46,2.15,2.15,0,0,0,1.19,0,1.67,1.67,0,0,0,.38-.15.18.18,0,0,1,.26,0A2,2,0,0,1,13.86,4h0l0,0,0,.09c0,.09.07.19.11.28a.22.22,0,0,1,0,.11A2.22,2.22,0,0,1,12.2,6.13Zm-.92-3.67a.88.88,0,0,0-.79.48,1.41,1.41,0,0,0-.16.49,1.51,1.51,0,0,0,0,.3,1.39,1.39,0,0,1,0,.41.77.77,0,0,0,.07.54,3.86,3.86,0,0,0,.43.69,1.79,1.79,0,0,0,1.65.72A2.19,2.19,0,0,0,14,4.45a.37.37,0,0,0,0-.09c0-.09-.07-.19-.11-.28l0-.1h0l.06,0a2,2,0,0,0-.7-1.53.17.17,0,0,0-.23,0,2,2,0,0,1-.38.16,2.22,2.22,0,0,1-1.21,0A.78.78,0,0,0,11.06,2.47Z"/><path class="cls-1" d="M9.51,2.78a9.83,9.83,0,0,1,.07-1A1.83,1.83,0,0,1,10.76.29,3.43,3.43,0,0,1,12.4,0a1,1,0,0,1,.76.51.87.87,0,0,1,.06.4A2.16,2.16,0,0,1,13,2a.42.42,0,0,1-.17.18,1.58,1.58,0,0,1-1.24.15,1.45,1.45,0,0,0-.77,0,1.28,1.28,0,0,0-1,1.16c0,.2,0,.41,0,.62a.77.77,0,0,1-.07.16s-.09-.09-.1-.14C9.58,3.59,9.54,3.15,9.51,2.78Z"/><path d="M9.72,4.2v0l0,0A.17.17,0,0,1,9.61,4c0-.34-.06-.69-.09-1,0-.09,0-.17,0-.25h0c0-.12,0-.24,0-.36s0-.45.05-.67A1.86,1.86,0,0,1,10.75.28,3.55,3.55,0,0,1,12.41,0a.94.94,0,0,1,.76.51.78.78,0,0,1,.06.38v0A2.07,2.07,0,0,1,13,2a.47.47,0,0,1-.18.19,1.61,1.61,0,0,1-1.26.15,1.46,1.46,0,0,0-.75,0,1.28,1.28,0,0,0-1,1.15c0,.12,0,.25,0,.37A2.09,2.09,0,0,1,9.8,4a.28.28,0,0,1,0,.12l0,0ZM9.53,2.78a2.29,2.29,0,0,0,0,.25c0,.31,0,.66.09,1,0,0,0,.06,0,.09l0,0v0a.3.3,0,0,0,0-.11c0-.08,0-.17,0-.25a2.53,2.53,0,0,1,0-.38,1.28,1.28,0,0,1,1-1.17,1.53,1.53,0,0,1,.77,0,1.54,1.54,0,0,0,1.23-.14A.49.49,0,0,0,13,1.94a2.06,2.06,0,0,0,.23-1v0a.74.74,0,0,0-.06-.37A.92.92,0,0,0,12.4,0,3.61,3.61,0,0,0,10.76.3,1.84,1.84,0,0,0,9.59,1.75a6.57,6.57,0,0,0-.05.66C9.54,2.53,9.53,2.65,9.53,2.78Z"/><path class="cls-1" d="M3.64,6.24a2.05,2.05,0,0,0,1.54,0v.52c0,.34,0,.34.34.43L6,7.33a2.21,2.21,0,0,1-3.27,0l.62-.17c.25-.07.25-.07.25-.33Z"/><path d="M4.41,8.07a2.2,2.2,0,0,1-1.65-.72v0h0L3,7.27l.42-.12c.24-.06.24-.06.24-.31V6.22h0a2,2,0,0,0,1.53,0h0v.54c0,.33,0,.33.32.42l.36.1.19,0h0a2.07,2.07,0,0,1-1.58.73ZM2.8,7.35A2.13,2.13,0,0,0,4.47,8,2,2,0,0,0,6,7.34l-.15,0-.36-.1c-.34-.09-.34-.09-.34-.44v-.5a2,2,0,0,1-1.51,0v.58c0,.26,0,.27-.27.34L3,7.3Z"/><path class="cls-1" d="M11.07,6.17a2,2,0,0,0,1.88,0,.67.67,0,0,1-.15.62c-.27.28-.52.59-.79.91l-.29-.34c-.16-.19-.31-.38-.48-.55A.66.66,0,0,1,11.07,6.17Z"/><path d="M12,7.71l-.11-.12-.19-.23-.15-.18a2.91,2.91,0,0,0-.33-.37.64.64,0,0,1-.17-.64v0h0a2,2,0,0,0,1.86,0h0v0a.68.68,0,0,1-.15.63c-.19.19-.36.4-.55.62L12,7.7Zm-.93-1.52a.62.62,0,0,0,.17.6,3.8,3.8,0,0,1,.33.37l.15.18.2.23.08.09.23-.27c.19-.22.36-.43.55-.62a.64.64,0,0,0,.15-.59A2.07,2.07,0,0,1,11.08,6.19Z"/><path class="cls-1" d="M11.82,7.87l-.81.6-.63-1.19.53-.46Z"/><path d="M11,8.49l-.65-1.21.55-.48.93,1.07Zm-.61-1.2L11,8.45l.78-.58-.89-1Z"/><path class="cls-1" d="M13.11,6.82c.16.14.31.27.45.41a.15.15,0,0,1,0,.14L13,8.47l-.81-.6Z"/><path d="M13,8.49l-.83-.62.93-1.07h0l.13.11.32.3a.16.16,0,0,1,0,.16l-.44.85L13,8.48Zm-.79-.62.78.58.13-.24.45-.84a.15.15,0,0,0,0-.13l-.32-.3-.12-.1Z"/></g></g></svg>