<svg xmlns="http://www.w3.org/2000/svg" viewBox="0 0 14.64 14.67"><defs><style>.cls-1{fill:#fff;}</style></defs><title>Asset 27student</title><g id="Layer_2" data-name="Layer 2"><g id="Layer_1-2" data-name="Layer 1"><path class="cls-1" d="M4.38,14.66a5.17,5.17,0,0,1,.13-1.8,2.9,2.9,0,0,1,2.46-2l.08,0,0,0a1.51,1.51,0,0,1-1-.63A1.4,1.4,0,0,1,5.91,9,1.45,1.45,0,0,1,7.36,7.92,1.41,1.41,0,0,1,8.75,9.18a1.44,1.44,0,0,1-1.24,1.64l.29,0a2.92,2.92,0,0,1,2.43,2.91c0,.3,0,.59,0,.88Z"/><path d="M10.25,14.67H4.37v-.38a3.87,3.87,0,0,1,.13-1.43,2.9,2.9,0,0,1,2.46-2h.11a1.46,1.46,0,0,1-1-.64A1.44,1.44,0,0,1,5.9,9a1.49,1.49,0,0,1,.55-.84,1.29,1.29,0,0,1,.91-.29,1.41,1.41,0,0,1,1.4,1.27,1.44,1.44,0,0,1-1.21,1.64h.07l.18,0a2.93,2.93,0,0,1,2.44,2.92v.89Zm-5.86,0h5.84v-.87a2.91,2.91,0,0,0-2.42-2.9l-.18,0-.11,0h0A1.42,1.42,0,0,0,8.74,9.18,1.38,1.38,0,0,0,7.36,7.93,1.45,1.45,0,0,0,5.92,9a1.38,1.38,0,0,0,.21,1.13,1.41,1.41,0,0,0,1,.63H7a2.86,2.86,0,0,0-2.45,2,4,4,0,0,0-.14,1.42C4.39,14.4,4.39,14.52,4.39,14.65Z"/><path class="cls-1" d="M7.44,0,8.65.47l3.14,1.15a.45.45,0,0,1,.36.38.43.43,0,0,1-.31.47l-2,.74L7.6,4a.7.7,0,0,1-.55,0L2.82,2.47A.42.42,0,0,1,2.5,2.1a.41.41,0,0,1,.3-.46l2-.74L7.1.06l.11,0Z"/><path d="M7.33,4.09A.67.67,0,0,1,7.05,4L3,2.54l-.15-.06a.44.44,0,0,1-.33-.38.42.42,0,0,1,.31-.47l1.56-.57,1.1-.4L7.1.06l.07,0,0,0h.23l.38.14.83.32,3.14,1.15a.47.47,0,0,1,.37.39.44.44,0,0,1-.32.48l-1.92.7-.1,0-.68.25L7.6,4A.66.66,0,0,1,7.33,4.09ZM7.21,0l0,0L7.1.07,5.47.67l-1.1.4-1.56.58a.4.4,0,0,0-.3.45.42.42,0,0,0,.32.36L3,2.52,7.05,4A.75.75,0,0,0,7.6,4l1.53-.56.69-.25.1,0,1.92-.7a.41.41,0,0,0,.3-.46c0-.18-.13-.29-.35-.38L8.64.47,7.81.16,7.44,0Z"/><path class="cls-1" d="M11.09,14.66c0-.39,0-.79,0-1.18a3.59,3.59,0,0,0-.82-2.1l-.07-.09a2.92,2.92,0,0,1,1.33-.47,1.47,1.47,0,0,1,.22-2.91,1.46,1.46,0,0,1,1.44,1.27,1.48,1.48,0,0,1-1.24,1.64l.33.06a2.91,2.91,0,0,1,2.35,2.47.36.36,0,0,0,0,.1v.89a.69.69,0,0,1-.31.32Z"/><path d="M14.32,14.67H11.08v-.37c0-.26,0-.54,0-.8a3.65,3.65,0,0,0-.82-2.11l0-.05,0-.05h0a2.87,2.87,0,0,1,1.29-.46,1.51,1.51,0,0,1-.94-.62,1.55,1.55,0,0,1-.23-1A1.44,1.44,0,0,1,11.73,7.9h0a1.48,1.48,0,0,1,1.43,1.28,1.51,1.51,0,0,1-.21,1,1.61,1.61,0,0,1-1,.67h.08l.2,0a2.88,2.88,0,0,1,1.58.86,2.94,2.94,0,0,1,.78,1.61s0,.05,0,.08v.92h0a.61.61,0,0,1-.32.31Zm-3.22,0h3.22a.65.65,0,0,0,.3-.31v-.92s0-.05,0-.07a2.89,2.89,0,0,0-2.34-2.46l-.2,0-.17,0h0a1.45,1.45,0,0,0-.18-2.89h0a1.46,1.46,0,0,0-.23,2.89h0a3,3,0,0,0-1.32.46l0,0,0,0a3.65,3.65,0,0,1,.83,2.11c0,.27,0,.55,0,.81Z"/><path class="cls-1" d="M.33,14.66A.56.56,0,0,1,0,14.08a3.44,3.44,0,0,1,.24-1.49,2.86,2.86,0,0,1,2.34-1.74l.13,0A1.45,1.45,0,0,1,1.5,9.11a1.43,1.43,0,0,1,1.44-1.2,1.47,1.47,0,0,1,.22,2.91,2.94,2.94,0,0,1,1.24.42c-.2.36-.42.7-.6,1.07a3.29,3.29,0,0,0-.28,1.32c0,.34,0,.68,0,1Z"/><path d="M3.54,14.67H.32A.55.55,0,0,1,0,14.08a3.58,3.58,0,0,1,.24-1.5,2.89,2.89,0,0,1,2.35-1.74l.07,0h0A1.44,1.44,0,0,1,1.49,9.11,1.35,1.35,0,0,1,2,8.25a1.47,1.47,0,0,1,1-.34h0a1.47,1.47,0,0,1,.27,2.91,3.09,3.09,0,0,1,1.2.41h0l-.19.33c-.14.24-.29.49-.41.75a3.19,3.19,0,0,0-.28,1.31v.71c0,.11,0,.21,0,.32Zm-3.21,0H3.52c0-.11,0-.21,0-.31v-.71a3.09,3.09,0,0,1,.29-1.32c.12-.26.26-.51.4-.75a3.37,3.37,0,0,0,.19-.32,3.08,3.08,0,0,0-1.23-.41h0a1.46,1.46,0,0,0-.22-2.9h0A1.41,1.41,0,0,0,1.51,9.11a1.44,1.44,0,0,0,1.21,1.7H2.67l-.08,0A2.88,2.88,0,0,0,.26,12.59,3.51,3.51,0,0,0,0,14.08.54.54,0,0,0,.33,14.65Z"/><path class="cls-1" d="M4.6,4c.71.26,1.4.49,2.07.76A1.63,1.63,0,0,0,8,4.8c.64-.25,1.28-.47,1.93-.71l.14,0c0,.53,0,1.06,0,1.58A.39.39,0,0,1,9.72,6l-1.86.68c-.64.24-.44.23-1.07,0L5,6a.45.45,0,0,1-.36-.5Z"/><path d="M7.32,6.86A.85.85,0,0,1,7,6.77l-.23-.09-1.3-.47L5,6A.45.45,0,0,1,4.6,5.5c0-.34,0-.67,0-1V4h0l.63.23,1.44.53A1.61,1.61,0,0,0,8,4.79l1.35-.5.57-.2.1,0h.06V4.5c0,.39,0,.76,0,1.13A.4.4,0,0,1,9.72,6l-.8.3-1.06.38-.2.08A1.25,1.25,0,0,1,7.32,6.86ZM4.61,4.05V5.5A.44.44,0,0,0,5,6l.54.2,1.29.47L7,6.75a.62.62,0,0,0,.63,0l.21-.07,1.06-.39L9.71,6c.21-.07.31-.19.32-.35V4.06h0l-.09,0-.57.21c-.45.16-.91.32-1.35.5a1.66,1.66,0,0,1-1.31,0c-.47-.19-.94-.35-1.44-.53Z"/><path class="cls-1" d="M12.15,3.27c0,.62,0,1.22,0,1.82a.41.41,0,0,1-.39.37.42.42,0,0,1-.44-.31,1,1,0,0,1,0-.18V3.7c0-.09,0-.13.11-.16Z"/><path d="M11.72,5.47a.41.41,0,0,1-.41-.31,1.11,1.11,0,0,1,0-.19V3.7c0-.1,0-.14.12-.17l.52-.19.22-.08h0V5.09a.41.41,0,0,1-.4.38Zm.42-2.19-.21.08-.52.19c-.08,0-.11.06-.11.15,0,.26,0,.52,0,.77V5a.9.9,0,0,0,0,.18.4.4,0,0,0,.43.3.39.39,0,0,0,.38-.36V3.28Z"/></g></g></svg>