<svg xmlns="http://www.w3.org/2000/svg" viewBox="0 0 13.67 16.24"><defs><style>.cls-1{fill:#fff;}</style></defs><title>Asset 22subject</title><g id="Layer_2" data-name="Layer 2"><g id="Layer_1-2" data-name="Layer 1"><path class="cls-1" d="M1.84,0H13.32a.52.52,0,0,1,.33.55c0,3.9,0,7.79,0,11.69,0,.59-.18.69-.71.69H2a1.2,1.2,0,0,0,.19,2.4H12.79V14.2a.43.43,0,0,1,.43-.44.41.41,0,0,1,.42.45c0,.52,0,1,0,1.55a.42.42,0,0,1-.46.46c-3.71,0-7.42,0-11.12,0A2,2,0,0,1,.21,15,2.2,2.2,0,0,1,0,14.06c0-4,0-7.92,0-11.87A2.13,2.13,0,0,1,1.64.07Zm.53,6.41v4.2a1.09,1.09,0,0,0,0,.18.42.42,0,0,0,.84,0,.53.53,0,0,0,0-.13V2.15a.49.49,0,0,0,0-.12.42.42,0,0,0-.44-.37.43.43,0,0,0-.41.48Z"/><path d="M7.25,16.24H2.06A2,2,0,0,1,.19,15a2.11,2.11,0,0,1-.19-1c0-.82,0-1.64,0-2.46C0,8.51,0,5.32,0,2.19A2.15,2.15,0,0,1,1.64.05l.13,0,.06,0h11.5a.54.54,0,0,1,.34.57c0,3.92,0,7.77,0,11.69a.75.75,0,0,1-.15.57.81.81,0,0,1-.58.15H2a1.17,1.17,0,0,0-1,.91,1.15,1.15,0,0,0,.22,1,1.27,1.27,0,0,0,1,.45h10.6V14.2a.46.46,0,0,1,.45-.47.45.45,0,0,1,.44.48c0,.51,0,1,0,1.55a.44.44,0,0,1-.48.48H7.25ZM1.84,0l-.06,0-.13,0A2.12,2.12,0,0,0,0,2.19c0,3.13,0,6.32,0,9.41v2.46A2.16,2.16,0,0,0,.23,15a2,2,0,0,0,1.83,1.19H13.18a.39.39,0,0,0,.44-.43V14.21a.4.4,0,0,0-.4-.43h0a.4.4,0,0,0-.4.42c0,.26,0,.52,0,.8v.38H2.17a1.34,1.34,0,0,1-1-.46,1.23,1.23,0,0,1,.86-2h11a.78.78,0,0,0,.55-.13c.1-.09.14-.26.14-.54,0-3.92,0-7.77,0-11.69A.5.5,0,0,0,13.31,0Zm1,11.16a.45.45,0,0,1-.44-.39.71.71,0,0,1,0-.14V2.14A.45.45,0,0,1,3.25,2v.11h0V10.8a.45.45,0,0,1-.45.4Zm0-9.52h0c-.24,0-.38.19-.38.46v8.53a.57.57,0,0,0,0,.13.42.42,0,0,0,.4.36h0a.41.41,0,0,0,.4-.36.34.34,0,0,0,0-.1V2.15h0A.41.41,0,0,0,3.2,2,.39.39,0,0,0,2.8,1.68Z"/></g></g></svg>