<svg xmlns="http://www.w3.org/2000/svg" viewBox="0 0 14.87 14.89"><defs><style>.cls-1{fill:#fff;}</style></defs><title>Asset 20Teacher</title><g id="Layer_2" data-name="Layer 2"><g id="Layer_1-2" data-name="Layer 1"><path class="cls-1" d="M14.85,5.88a1.6,1.6,0,0,1-.31.69,1.36,1.36,0,0,1-1,.47H8.32A1.32,1.32,0,0,1,7,5.65C7,4.26,7,2.87,7,1.48A1.43,1.43,0,0,1,8.1,0l0,0h5.56a1.54,1.54,0,0,1,.89.56,1.59,1.59,0,0,1,.27.66ZM13.09,3.57V2.31a.45.45,0,0,0-.44-.49.44.44,0,0,0-.43.49v2.5a.44.44,0,0,0,.43.49.45.45,0,0,0,.44-.49ZM11.35,4V3.17a.44.44,0,1,0-.87,0V4.82a.44.44,0,1,0,.87,0Zm-1.74.44V4a.44.44,0,1,0-.87,0v.87a.44.44,0,1,0,.87,0Z"/><path d="M10.65,7.06H8.32A1.35,1.35,0,0,1,7,5.65V4.23c0-.91,0-1.84,0-2.75A1.46,1.46,0,0,1,8.09,0H13.7a1.53,1.53,0,0,1,.89.57,1.71,1.71,0,0,1,.28.66h0V5.88h0a1.56,1.56,0,0,1-.32.7,1.37,1.37,0,0,1-1.05.48ZM8.14,0h0l0,0A1.41,1.41,0,0,0,7,1.48c0,.91,0,1.84,0,2.75V5.65A1.31,1.31,0,0,0,8.32,7C10,7,11.66,7,13.5,7a1.3,1.3,0,0,0,1-.47,1.34,1.34,0,0,0,.31-.67V1.24a1.6,1.6,0,0,0-.27-.65A1.48,1.48,0,0,0,13.69,0Zm1,5.28h0a.45.45,0,0,1-.44-.46q0-.47,0-.87a.45.45,0,0,1,.45-.45h0A.46.46,0,0,1,9.63,4v.85A.46.46,0,0,1,9.18,5.32Zm0-1.74A.42.42,0,0,0,8.76,4v.87a.41.41,0,0,0,.41.42h0a.41.41,0,0,0,.41-.43V4.43h0V4a.41.41,0,0,0-.41-.42Zm1.73,1.74a.46.46,0,0,1-.45-.5V3.17a.46.46,0,0,1,.45-.5h0a.46.46,0,0,1,.46.5V4.82a.47.47,0,0,1-.45.5Zm0-2.61h0a.42.42,0,0,0-.41.46V4.82a.42.42,0,0,0,.41.46h0a.42.42,0,0,0,.41-.46V4h0V3.17A.42.42,0,0,0,10.91,2.71Zm1.74,2.61a.46.46,0,0,1-.45-.51V2.31a.45.45,0,1,1,.9,0v2.5A.46.46,0,0,1,12.65,5.32Zm0-3.48a.42.42,0,0,0-.41.47c0,.83,0,1.67,0,2.5a.42.42,0,0,0,.41.47.42.42,0,0,0,.42-.47V2.31A.42.42,0,0,0,12.65,1.84Z"/><path class="cls-1" d="M5.12,14.88a.57.57,0,0,1-.32-.59,2.83,2.83,0,0,1,.38-1.61l.29-.42a2.64,2.64,0,0,0,3.9,0A2.62,2.62,0,0,1,10,13.86c0,.14,0,.29,0,.43a.54.54,0,0,1-.32.59Z"/><path d="M9.73,14.89H5.11a.56.56,0,0,1-.33-.6,2.86,2.86,0,0,1,.38-1.62,2.83,2.83,0,0,1,.2-.28l.09-.14h0a2.61,2.61,0,0,0,1.93.86h0a2.66,2.66,0,0,0,1.94-.85h0a2.67,2.67,0,0,1,.67,1.6v.2a1.77,1.77,0,0,0,0,.23.55.55,0,0,1-.34.6Zm-4.6,0H9.72a.52.52,0,0,0,.31-.57,1.69,1.69,0,0,1,0-.23,1.34,1.34,0,0,0,0-.2,2.6,2.6,0,0,0-.65-1.56,2.66,2.66,0,0,1-1.95.85h0a2.63,2.63,0,0,1-1.94-.86l-.08.12a2.83,2.83,0,0,0-.2.28,2.78,2.78,0,0,0-.37,1.6A.54.54,0,0,0,5.13,14.86Z"/><path class="cls-1" d="M10.83,14.88a2.44,2.44,0,0,0,.06-.26,3.84,3.84,0,0,0-.23-1.87.78.78,0,0,0-.05-.14.13.13,0,0,0,0,0,2.53,2.53,0,0,0,1.84.56,2.63,2.63,0,0,0,1.73-.85,2.52,2.52,0,0,1,.65,1.35l0,.12v.82l-.32.32Z"/><path d="M14.54,14.89H10.8v0a.24.24,0,0,0,0-.08.47.47,0,0,0,0-.17,3.84,3.84,0,0,0-.22-1.87l-.06-.13v-.1l0,0a2.61,2.61,0,0,0,3.55-.3h0a2.69,2.69,0,0,1,.65,1.37s0,.05,0,.08v0h0v.82Zm-3.69,0h3.68l.3-.31v-.84l0-.09a2.57,2.57,0,0,0-.63-1.33,2.65,2.65,0,0,1-1.73.85,2.55,2.55,0,0,1-1.81-.54h0a1.12,1.12,0,0,0,0,.13,3.9,3.9,0,0,1,.23,1.89.85.85,0,0,1,0,.17Z"/><path class="cls-1" d="M.34,14.88A.57.57,0,0,1,0,14.29,2.83,2.83,0,0,1,.4,12.68c.09-.14.19-.27.29-.41a2.6,2.6,0,0,0,3.54.31c-.07.24-.17.49-.22.75a3.69,3.69,0,0,0,0,1.48l0,.07Z"/><path d="M4.05,14.89H.34a.56.56,0,0,1-.34-.6,2.86,2.86,0,0,1,.38-1.62,2.83,2.83,0,0,1,.2-.28l.09-.14h0a2.56,2.56,0,0,0,3.52.31l0,0v.05c0,.08,0,.16-.07.23a3.39,3.39,0,0,0-.15.52A3.48,3.48,0,0,0,4,14.8l0,0v0Zm-3.7,0H4s0,0,0,0a3.56,3.56,0,0,1,0-1.49c0-.17.1-.35.15-.52l.06-.17a2.62,2.62,0,0,1-1.73.51,2.66,2.66,0,0,1-1.78-.85l-.08.12a2.83,2.83,0,0,0-.2.28A2.8,2.8,0,0,0,0,14.29.54.54,0,0,0,.35,14.86Z"/><path class="cls-1" d="M14.53,14.88l.32-.32v.32Z"/><path d="M14.87,14.89h-.38l.38-.38Zm-.29,0h.25V14.6Z"/><path class="cls-1" d="M7.42,8.78a1.74,1.74,0,1,1,0,3.48,1.73,1.73,0,0,1-1.73-1.75A1.75,1.75,0,0,1,7.42,8.78Z"/><path d="M7.41,12.28h0a1.75,1.75,0,0,1-1.24-.52,1.76,1.76,0,0,1,1.25-3h0a1.78,1.78,0,0,1,1.25.53,1.73,1.73,0,0,1,0,2.48A1.78,1.78,0,0,1,7.41,12.28Zm0-3.48a1.72,1.72,0,0,0-1.72,1.71,1.7,1.7,0,0,0,.5,1.22,1.72,1.72,0,0,0,1.21.52h0a1.71,1.71,0,0,0,1.22-.51,1.65,1.65,0,0,0,.53-1.21,1.7,1.7,0,0,0-.51-1.21A1.74,1.74,0,0,0,7.42,8.8Z"/><path class="cls-1" d="M12.22,8.78a1.74,1.74,0,1,1-1.74,1.73A1.75,1.75,0,0,1,12.22,8.78Z"/><path d="M12.22,12.28h0A1.7,1.7,0,0,1,11,11.76a1.73,1.73,0,0,1-.52-1.25,1.77,1.77,0,0,1,1.76-1.75h0a1.81,1.81,0,0,1,1.26.52A1.74,1.74,0,0,1,14,10.52a1.72,1.72,0,0,1-.53,1.24A1.75,1.75,0,0,1,12.22,12.28Zm0-3.48A1.73,1.73,0,0,0,11,11.74a1.79,1.79,0,0,0,1.21.51h0A1.76,1.76,0,0,0,14,10.52a1.71,1.71,0,0,0-.52-1.21,1.73,1.73,0,0,0-1.23-.51Z"/><path class="cls-1" d="M3.5,6.17A1.74,1.74,0,1,1,5.24,4.43,1.75,1.75,0,0,1,3.5,6.17Z"/><path d="M3.5,6.19h0a1.75,1.75,0,0,1-1.24-.52,1.74,1.74,0,0,1,0-2.49,1.74,1.74,0,0,1,1.24-.51A1.77,1.77,0,0,1,5.26,4.43,1.78,1.78,0,0,1,3.5,6.19Zm0-3.48a1.69,1.69,0,0,0-1.21.5,1.67,1.67,0,0,0-.51,1.21A1.72,1.72,0,0,0,3.5,6.15h0a1.72,1.72,0,0,0,0-3.44Z"/><path class="cls-1" d="M2.63,12.26a1.74,1.74,0,1,1,1.74-1.74A1.74,1.74,0,0,1,2.63,12.26Z"/><path d="M2.63,12.28A1.74,1.74,0,0,1,.88,10.52,1.71,1.71,0,0,1,1.4,9.28a1.74,1.74,0,0,1,1.23-.52h0a1.76,1.76,0,0,1,1.23,3,1.74,1.74,0,0,1-1.24.51Zm0-3.48a1.74,1.74,0,0,0-1.21.5,1.71,1.71,0,0,0,0,2.44,1.67,1.67,0,0,0,1.21.51h0a1.71,1.71,0,0,0,1.22-.51,1.74,1.74,0,0,0,.5-1.22A1.72,1.72,0,0,0,2.64,8.8Z"/><path class="cls-1" d="M6.58,8.06A2.68,2.68,0,0,0,5,9.47,2.57,2.57,0,0,0,2.6,7.92,2.59,2.59,0,0,0,.21,9.53a.43.43,0,0,1-.14-.41A3.47,3.47,0,0,1,1.88,6.59a.14.14,0,0,1,.18,0,2.53,2.53,0,0,0,2.87,0,.17.17,0,0,1,.19,0A3.57,3.57,0,0,1,6.58,8.06Z"/><path d="M.22,9.56l0,0a.44.44,0,0,1-.15-.43A3.52,3.52,0,0,1,1.87,6.57a.16.16,0,0,1,.2,0,2.52,2.52,0,0,0,2.85,0,.18.18,0,0,1,.2,0A3.5,3.5,0,0,1,6.59,8.05v0h0A2.62,2.62,0,0,0,5,9.48l0,0v0A2.57,2.57,0,0,0,2.6,7.94,2.56,2.56,0,0,0,.23,9.54ZM2,6.58l-.08,0A3.51,3.51,0,0,0,.08,9.12a.42.42,0,0,0,.13.38A2.58,2.58,0,0,1,2.6,7.9,2.58,2.58,0,0,1,5,9.43,2.7,2.7,0,0,1,6.55,8.05,3.53,3.53,0,0,0,5.11,6.6a.15.15,0,0,0-.17,0,2.55,2.55,0,0,1-2.89,0A.13.13,0,0,0,2,6.58Z"/></g></g></svg>